<svg width="24" height="24" viewBox="0 0 24 24" fill="none" xmlns="http://www.w3.org/2000/svg">
<path d="M15 5C13.897 5 13 5.897 13 7V22C13 23.103 13.897 24 15 24C16.103 24 17 23.103 17 22V7C17 5.897 16.103 5 15 5ZM16 22C16 22.552 15.551 23 15 23C14.449 23 14 22.552 14 22V7C14 6.448 14.449 6 15 6C15.551 6 16 6.448 16 7V22ZM9 11C7.897 11 7 11.897 7 13V22C7 23.103 7.897 24 9 24C10.103 24 11 23.103 11 22V13C11 11.897 10.103 11 9 11ZM10 22C10 22.552 9.551 23 9 23C8.449 23 8 22.552 8 22V13C8 12.448 8.449 12 9 12C9.551 12 10 12.448 10 13V22ZM3 17C1.897 17 1 17.897 1 19V22C1 23.103 1.897 24 3 24C4.103 24 5 23.103 5 22V19C5 17.897 4.103 17 3 17ZM4 22C4 22.552 3.551 23 3 23C2.449 23 2 22.552 2 22V19C2 18.448 2.449 18 3 18C3.551 18 4 18.448 4 19V22Z" fill="white"/>
</svg>
