<svg width="24" height="24" viewBox="0 0 24 24" fill="none" xmlns="http://www.w3.org/2000/svg">
<path d="M11 1H4.5C2.019 1 0 3.019 0 5.5V9C0 10.103 0.897 11 2 11H11C12.103 11 13 10.103 13 9V3C13 1.897 12.103 1 11 1ZM2 9V5.5C2 4.121 3.122 3 4.5 3H11V9H2ZM19.5 3H17C15.897 3 15 3.897 15 5V18C15 19.103 15.897 20 17 20H19.5C21.981 20 24 17.981 24 15.5V7.5C24 5.019 21.981 3 19.5 3ZM22 15.5C22 16.879 20.878 18 19.5 18H17V5H19.5C20.878 5 22 6.121 22 7.5V15.5ZM11 13H4C2.897 13 2 13.897 2 15V18.5C2 20.981 4.019 23 6.5 23H11C12.103 23 13 22.103 13 21V15C13 13.897 12.103 13 11 13ZM11 21H6.5C5.122 21 4 19.879 4 18.5V15H11V21Z" fill="white"/>
</svg>
