<svg width="24" height="24" viewBox="0 0 24 24" fill="none" xmlns="http://www.w3.org/2000/svg">
<g clip-path="url(#clip0_14_2)">
<path d="M21 9H3C1.35 9 0 10.35 0 12C0 13.65 1.35 15 3 15H21C22.65 15 24 13.65 24 12C24 10.35 22.65 9 21 9ZM21 13H3C2.45 13 2 12.55 2 12C2 11.45 2.45 11 3 11H21C21.55 11 22 11.45 22 12C22 12.55 21.55 13 21 13ZM3 6H15C16.65 6 18 4.65 18 3C18 1.35 16.65 0 15 0H3C1.35 0 0 1.35 0 3C0 4.65 1.35 6 3 6ZM3 2H15C15.55 2 16 2.45 16 3C16 3.55 15.55 4 15 4H3C2.45 4 2 3.55 2 3C2 2.45 2.45 2 3 2ZM9 18H3C1.35 18 0 19.35 0 21C0 22.65 1.35 24 3 24H9C10.65 24 12 22.65 12 21C12 19.35 10.65 18 9 18ZM9 22H3C2.45 22 2 21.55 2 21C2 20.45 2.45 20 3 20H9C9.55 20 10 20.45 10 21C10 21.55 9.55 22 9 22Z" fill="white"/>
</g>
<defs>
<clipPath id="clip0_14_2">
<rect width="24" height="24" fill="white"/>
</clipPath>
</defs>
</svg>
