<svg width="24" height="24" viewBox="0 0 24 24" fill="none" xmlns="http://www.w3.org/2000/svg">
<g clip-path="url(#clip0_14_10)">
<path d="M7.70701 9.25603C8.09801 9.64703 8.09801 10.28 7.70701 10.67C7.31601 11.061 6.68301 11.061 6.29301 10.67C5.90201 10.279 5.90201 9.64603 6.29301 9.25603C6.68401 8.86503 7.31701 8.86503 7.70701 9.25603ZM21.559 15.341L20.994 15.906C20.967 17.139 20.489 18.363 19.559 19.305L16.392 22.513C15.449 23.468 14.191 23.996 12.849 24H12.832C11.497 24 10.242 23.48 9.29801 22.536L1.88201 15.183C1.23201 14.534 0.918012 13.641 1.01801 12.73L1.78301 5.81403C1.83401 5.35803 2.18701 4.99503 2.64101 4.93303L9.53001 3.99103C10.462 3.86703 11.4 4.18403 12.058 4.84203L19.533 12.254C19.92 12.641 20.23 13.077 20.464 13.542C21.276 12.376 21.162 10.747 20.122 9.70703L12.531 2.30203C12.302 2.07303 11.986 1.96703 11.68 2.01003L4.79101 2.95203C4.24201 3.02603 3.73901 2.64303 3.66401 2.09703C3.59001 1.55003 3.97301 1.04603 4.51901 0.971034L11.409 0.0280342C12.33 -0.102966 13.278 0.219034 13.937 0.880034L21.526 8.28503C23.472 10.23 23.483 13.392 21.558 15.342L21.559 15.341ZM18.121 13.671L10.646 6.25903C10.423 6.03603 10.11 5.93303 9.79901 5.97203L3.68401 6.80903L3.00501 12.949C2.97201 13.252 3.07601 13.55 3.29201 13.765L10.708 21.118C11.277 21.688 12.03 21.999 12.831 21.999H12.841C13.647 21.997 14.402 21.68 14.967 21.106L18.134 17.898C19.289 16.728 19.283 14.831 18.12 13.669L18.121 13.671Z" fill="white"/>
</g>
<defs>
<clipPath id="clip0_14_10">
<rect width="24" height="24" fill="white"/>
</clipPath>
</defs>
</svg>
