<svg width="32" height="31" viewBox="0 0 32 31" fill="none" xmlns="http://www.w3.org/2000/svg">
<g clip-path="url(#clip0_12_180)">
<path d="M23.9851 4.30068C23.6892 4.27801 23.3933 4.34361 23.1347 4.48916C22.8761 4.63472 22.6665 4.85369 22.5324 5.11839L20.161 9.801L14.2733 6.81826C14.0975 6.72915 13.9059 6.67554 13.7094 6.66051C13.5129 6.64547 13.3154 6.6693 13.1281 6.73063C12.9408 6.79196 12.7675 6.88959 12.618 7.01795C12.4684 7.1463 12.3457 7.30286 12.2567 7.47868L9.27392 13.3664L4.59195 10.9937C4.32726 10.8595 4.02871 10.8068 3.73407 10.8424C3.43943 10.8779 3.16196 11 2.93675 11.1933C2.71155 11.3866 2.54873 11.6423 2.46892 11.9281C2.3891 12.214 2.39586 12.5171 2.48835 12.7991L5.99648 23.5112C6.45205 24.8964 7.43835 26.0443 8.73908 26.7032C10.0398 27.3622 11.5488 27.4784 12.9351 27.0264L25.2894 22.9804C26.6746 22.5249 27.8225 21.5386 28.4814 20.2378C29.1404 18.9371 29.2566 17.4281 28.8046 16.0418L25.2964 5.32965C25.2041 5.04767 25.0302 4.7994 24.7968 4.61624C24.5634 4.43308 24.2809 4.32327 23.9851 4.30068ZM25.9535 16.9755C26.1599 17.6056 26.1075 18.2919 25.8078 18.8834C25.5082 19.4749 24.9859 19.9231 24.3558 20.1294L12.0014 24.1753C11.3713 24.3817 10.685 24.3293 10.0935 24.0297C9.50206 23.73 9.05385 23.2077 8.84749 22.5776L6.46631 15.3065L9.25688 16.7203C9.61172 16.9 10.0234 16.9314 10.4014 16.8076C10.7794 16.6838 11.0927 16.4149 11.2725 16.0602L14.2553 10.1724L20.143 13.1552C20.4978 13.3349 20.9095 13.3663 21.2875 13.2425C21.6655 13.1187 21.9788 12.8499 22.1586 12.4951L23.5724 9.70449L25.9535 16.9755Z" fill="white"/>
</g>
<defs>
<clipPath id="clip0_12_180">
<rect width="24" height="24" fill="white" transform="translate(0.861267 7.83069) rotate(-18.1331)"/>
</clipPath>
</defs>
</svg>
