<svg xmlns="http://www.w3.org/2000/svg" width="71" height="71" fill="none"><g fill="#fff" clip-path="url(#a)"><path d="m57.184 35.087-6.523-7.992a.996.996 0 0 0-1.403-.149.996.996 0 0 0-.148 1.402l5.998 7.354-5.147 6.142-7.983-9.777a.98.98 0 0 0-.666-.362l-5.578-.592a1.03 1.03 0 0 0-.618.136l-.912.537c-2.134 1.252-4.962.992-6.799-.56l9.354-6.37 5.21.553a.97.97 0 0 0 .727-.214l2.318-1.846 1.558 1.905a.996.996 0 0 0 1.402.148.996.996 0 0 0 .149-1.402l-2.18-2.675a.996.996 0 0 0-1.402-.148l-2.769 2.21-5.171-.548a.97.97 0 0 0-.672.17l-10.643 7.248a1 1 0 0 0-.424.679c-.04.277.041.557.209.776a7.85 7.85 0 0 0 5.288 2.854 7.9 7.9 0 0 0 4.859-1.054l.632-.365 4.843.514 8.49 10.393a.98.98 0 0 0 .666.362l.1.01a1 1 0 0 0 .772-.36l6.458-7.702a.99.99 0 0 0 .005-1.276ZM31.669 50.382c.099-.27.168-.545.2-.843a3.675 3.675 0 0 0-2.867-3.974c.1-.272.17-.556.2-.845a3.65 3.65 0 0 0-.817-2.72c-1.033-1.267-2.73-1.658-4.185-1.129a3.7 3.7 0 0 0-.79-1.843 3.754 3.754 0 0 0-5.24-.556l-1.924 1.546a3.65 3.65 0 0 0-1.37 2.49c-.105.984.185 1.95.817 2.72a3.75 3.75 0 0 0 2.048 1.264c-.099.27-.169.555-.2.843-.104.985.186 1.95.818 2.722a3.73 3.73 0 0 0 2.501 1.351c.05.005.101 0 .14.005-.005.05-.019.088-.024.138-.104.984.185 1.95.818 2.721a3.73 3.73 0 0 0 2.501 1.352c.298.031.592.012.888-.027a3.6 3.6 0 0 0 .816 2.259 3.73 3.73 0 0 0 2.502 1.351c.944.1 1.937-.156 2.729-.796l1.924-1.546a3.65 3.65 0 0 0 1.37-2.49 3.65 3.65 0 0 0-.818-2.72 3.75 3.75 0 0 0-2.048-1.264zM16.876 42.71c.047-.447.271-.856.623-1.14l1.924-1.546a1.744 1.744 0 0 1 2.436.258c.285.352.418.799.371 1.246a1.7 1.7 0 0 1-.624 1.141l-1.933 1.545a1.745 1.745 0 0 1-2.437-.259 1.7 1.7 0 0 1-.37-1.246zm3.037 6.064a1.7 1.7 0 0 1-.37-1.246c.047-.447.271-.856.623-1.14l4.241-3.392a1.76 1.76 0 0 1 1.276-.367c.448.047.867.263 1.17.627.285.352.419.798.371 1.246a1.7 1.7 0 0 1-.623 1.14l-4.242 3.392a1.745 1.745 0 0 1-2.436-.258zm3.436 4.206a1.7 1.7 0 0 1-.371-1.246c.047-.447.272-.856.624-1.14l3.472-2.78a1.76 1.76 0 0 1 1.276-.367c.447.047.867.263 1.17.627.285.352.419.798.371 1.246a1.7 1.7 0 0 1-.624 1.14l-3.472 2.78a1.744 1.744 0 0 1-2.436-.259h-.01Zm8.574 2.307L30 56.832a1.744 1.744 0 0 1-2.436-.258 1.7 1.7 0 0 1-.37-1.246c.047-.448.271-.857.623-1.14l1.924-1.547a1.76 1.76 0 0 1 1.276-.367c.447.047.867.263 1.17.627.285.352.418.798.37 1.246a1.7 1.7 0 0 1-.623 1.14zm16.419-8.316c-.727.114-1.305-.118-1.705-.613l-1.755-2.137a1.005 1.005 0 0 0-1.402-.148 1.005 1.005 0 0 0-.148 1.402l2.385 2.917c.285.352.418.799.37 1.246a1.7 1.7 0 0 1-.623 1.141 1.745 1.745 0 0 1-2.436-.258l-2.03-2.488a.996.996 0 0 0-1.401-.149.996.996 0 0 0-.15 1.402l2.03 2.488c.284.352.418.799.37 1.246a1.7 1.7 0 0 1-.623 1.14 1.733 1.733 0 0 1-2.427-.256l-1.405-1.728a.996.996 0 0 0-1.402-.15c-.42.349-.497.984-.15 1.403l1.398 1.717c.284.352.409.788.361 1.235a1.71 1.71 0 0 1-1.89 1.52l-.11-.012a.994.994 0 0 0-1.195.748.987.987 0 0 0 .748 1.195 3.704 3.704 0 0 0 4.446-3.24c.004-.039-.001-.08.003-.12.05.006.088.02.138.025a3.72 3.72 0 0 0 2.73-.796 3.65 3.65 0 0 0 1.37-2.49c.005-.05-.001-.09.003-.13.05.005.099.02.138.025a3.72 3.72 0 0 0 2.73-.797 3.65 3.65 0 0 0 1.37-2.49 3.5 3.5 0 0 0-.02-.856c.191 0 .394-.019.588-.049.542-.083.918-.596.836-1.148a1.01 1.01 0 0 0-1.148-.835zM31.884 21.705l-1.208-.842a2.9 2.9 0 0 0 .85-1.75 2.93 2.93 0 0 0-.654-2.181l-3.747-4.591a2.98 2.98 0 0 0-4.186-.444l-7.471 5.965a.987.987 0 0 0-.149 1.403.987.987 0 0 0 1.402.148l7.481-5.964a.99.99 0 0 1 1.382.146l3.747 4.591c.17.2.244.448.217.707a.92.92 0 0 1-.36.645L13.77 31.872a1 1 0 0 1-1.392-.148l-3.747-4.59a.95.95 0 0 1-.208-.697.98.98 0 0 1 .352-.656l4.834-3.862a.987.987 0 0 0 .148-1.402.987.987 0 0 0-1.402-.149L7.522 24.23a2.96 2.96 0 0 0-1.088 2.006 2.94 2.94 0 0 0 .645 2.17l3.747 4.591a3 3 0 0 0 2.008 1.078 3 3 0 0 0 1.692-.313l.614 2.74a1 1 0 0 0 .873.776c.11.012.211.002.324-.016a1.01 1.01 0 0 0 .76-1.196l-.812-3.626 12.812-10.246 1.657 1.161c.14.095.305.153.465.17.348.037.706-.116.93-.424a1.003 1.003 0 0 0-.245-1.394z"/><path d="m65.52 29.686-.926-1.123a.996.996 0 1 0-1.542 1.264l.917 1.113a.954.954 0 0 1-.143 1.352L59.2 35.985a1 1 0 0 1-1.393-.147l-7.145-8.763a.996.996 0 0 0-1.402-.148.996.996 0 0 0-.15 1.402l7.156 8.773a3.03 3.03 0 0 0 1.998 1.067 3 3 0 0 0 2.188-.623l4.626-3.703a2.97 2.97 0 0 0 .443-4.176l-.002.02Zm-18.95-4.422c.17.209.418.335.666.362a1 1 0 0 0 .738-.224.996.996 0 0 0 .149-1.402l-2.803-3.445a.92.92 0 0 1-.216-.706.94.94 0 0 1 .36-.646l4.625-3.693a.99.99 0 0 1 1.382.147l9.044 11.065c.346.43.984.487 1.402.149.429-.347.486-.984.149-1.402l-9.044-11.066a2.98 2.98 0 0 0-4.186-.444l-4.626 3.693a2.93 2.93 0 0 0-1.096 1.996 2.93 2.93 0 0 0 .653 2.18l2.803 3.445v-.01Z"/></g><defs><clipPath id="a"><path fill="#fff" d="m7.131.607 63.643 6.749-6.749 63.643L.382 64.25z"/></clipPath></defs></svg>