<svg xmlns="http://www.w3.org/2000/svg" width="28" height="23" fill="none"><g filter="url(#a)" shape-rendering="crispEdges"><path fill="#9C081B" fill-opacity=".8" d="m14.385 5.176 5.46 5.46-5.46 5.46a2.42 2.42 0 0 0-.7 1.689 2.397 2.397 0 0 0 4.086 1.698l8.225-8.225a.874.874 0 0 0 0-1.243L17.771 1.79a2.398 2.398 0 0 0-3.386 3.386"/><path fill="#9C081B" fill-opacity=".8" d="M14.061 11.258a.874.874 0 0 0 0-1.243L5.836 1.79A2.397 2.397 0 1 0 2.45 5.176l5.425 5.46-5.46 5.46a2.42 2.42 0 0 0-.7 1.689 2.397 2.397 0 0 0 4.086 1.698z"/><path stroke="#9C081B" d="m2.06 15.744.002-.001 5.107-5.108-5.065-5.097a2.897 2.897 0 1 1 4.094-4.093l8.216 8.215a1.375 1.375 0 0 1 0 1.952zm0 0a2.92 2.92 0 0 0-.845 2.039v.003a2.897 2.897 0 0 0 4.939 2.051l8.26-8.224zM14.014 5.511l.009.01.009.009 5.106 5.106-5.106 5.107-.002.001a2.92 2.92 0 0 0-.845 2.039v.003a2.897 2.897 0 0 0 4.939 2.051l.001-.001 8.224-8.223v-.001a1.376 1.376 0 0 0 0-1.95V9.66l-8.224-8.224-.009-.008-.01-.009a2.897 2.897 0 0 0-4.092 4.092Z"/></g><defs><filter id="a" width="26.595" height="22.178" x=".66" y="0" color-interpolation-filters="sRGB" filterUnits="userSpaceOnUse"><feFlood flood-opacity="0" result="BackgroundImageFix"/><feColorMatrix in="SourceAlpha" result="hardAlpha" values="0 0 0 0 0 0 0 0 0 0 0 0 0 0 0 0 0 0 127 0"/><feOffset dy="1"/><feComposite in2="hardAlpha" operator="out"/><feColorMatrix values="0 0 0 0 0.611765 0 0 0 0 0.0313726 0 0 0 0 0.105882 0 0 0 0.65 0"/><feBlend in2="BackgroundImageFix" result="effect1_dropShadow_7061_22834"/><feBlend in="SourceGraphic" in2="effect1_dropShadow_7061_22834" result="shape"/></filter></defs></svg>