<svg xmlns="http://www.w3.org/2000/svg" width="50" height="50" fill="none"><rect width="50" height="50" fill="#9C081B" rx="12"/><g clip-path="url(#a)"><path fill="#fff" d="M28.438 41H16.5c-2.757 0-5-2.243-5-5V19.063c0-2.758 2.243-5 5-5h11.938c2.757 0 5 2.242 5 5V36c0 2.757-2.243 5-5 5M16.5 16.563a2.503 2.503 0 0 0-2.5 2.5V36c0 1.378 1.122 2.5 2.5 2.5h11.938c1.378 0 2.5-1.122 2.5-2.5V19.063c0-1.379-1.122-2.5-2.5-2.5zm21.938 16.312V14c0-2.757-2.243-5-5-5H19.562a1.25 1.25 0 1 0 0 2.5h13.875c1.379 0 2.5 1.122 2.5 2.5v18.875a1.25 1.25 0 1 0 2.5 0"/></g><defs><clipPath id="a"><path fill="#fff" d="M9 9h32v32H9z"/></clipPath></defs></svg>