<svg width="435" height="267" viewBox="0 0 435 267" fill="none"
  xmlns="http://www.w3.org/2000/svg">
  <style>

    <style>
@keyframes garlandEffect {
  0% {
    fill: #faff65; /* Начальный цвет */
  }
  25% {
    fill: green;
  }
  50% {
    fill: blue;
  }
  75% {
    fill: blueviolet;
  }
  100% {
    fill: aquamarine; /* Возвращение к начальному цвету */
  }
}

.pathAnim {
  animation: garlandEffect 1s infinite alternate;
  animation-delay: 0s;
}

.pathAnim:nth-child(2n) {
  animation-delay: 0.5s;
}

/* Задание задержки в 0.7 секунды для каждого третьего элемента */
.pathAnim:nth-child(3n) {
  animation-delay: 0.7s;
}


    </style>
  </style>
  <path d="M52.4582 266.992C23.9871 266.992 0.9021 243.876 0.9021 215.365V52.1281C0.9021 23.6181 23.9871 0.501465 52.4582 0.501465H382.672C411.143 0.501465 434.228 23.6181 434.228 52.1281V215.353C434.228 243.863 411.143 266.98 382.672 266.98H52.4582V266.992Z" fill="#FFA7A9"/>
  <path d="M52.4582 13.8638H382.672C403.78 13.8638 420.884 30.9917 420.884 52.1282V215.353C420.884 236.49 403.78 253.618 382.672 253.618H52.4582C31.3505 253.618 14.246 236.49 14.246 215.353V52.1282C14.246 30.9917 31.3505 13.8638 52.4582 13.8638Z" fill="url(#paint0_linear_278_4)"/>
  <path d="M52.4582 265.777C24.6543 265.777 2.11517 243.208 2.11517 215.366V52.1282C2.11517 24.2863 24.6543 1.71631 52.4582 1.71631H382.672C410.476 1.71631 433.015 24.2863 433.015 52.1282V215.353C433.015 243.195 410.476 265.765 382.672 265.765H52.4582V265.777ZM52.4582 241.483H382.672C397.072 241.483 408.754 229.785 408.754 215.366V52.1282C408.754 37.7092 397.072 26.0112 382.672 26.0112H52.4582C38.0589 26.0112 26.3769 37.7092 26.3769 52.1282V215.353C26.3769 229.772 38.0589 241.47 52.4582 241.47V241.483Z" fill="#F92D2D"/>
  <path d="M52.4582 242.697C37.3796 242.697 25.1638 230.465 25.1638 215.366V52.1281C25.1638 37.0289 37.3796 24.7964 52.4582 24.7964H382.672C397.751 24.7964 409.967 37.0289 409.967 52.1281V215.353C409.967 230.453 397.751 242.685 382.672 242.685H52.4582V242.697ZM52.4582 240.268H382.672C396.404 240.268 407.541 229.116 407.541 215.366V52.1281C407.541 38.3772 396.404 27.2259 382.672 27.2259H52.4582C38.7261 27.2259 27.59 38.3772 27.59 52.1281V215.353C27.59 229.104 38.7261 240.256 52.4582 240.256V240.268Z" fill="#BC5564"/>
  <path class="pathAnim" d="M82.5792 13.5477C82.5792 15.3334 82.1667 16.864 81.3418 18.1152C80.5169 19.3664 79.4979 20.3139 78.2849 20.9577C77.0718 21.6015 75.7253 21.9416 74.2574 21.9781C72.7896 22.0145 71.4188 21.7594 70.1329 21.2249C68.8471 20.6904 67.7553 19.8523 66.8576 18.6983C65.9599 17.5564 65.4504 16.0866 65.3048 14.3009C65.1593 12.4423 65.4989 10.8875 66.3238 9.62412C67.1487 8.37293 68.2041 7.42543 69.49 6.78162C70.7759 6.1378 72.1709 5.79767 73.6751 5.76123C75.1794 5.72479 76.5865 5.97988 77.9088 6.51437C79.2311 7.04886 80.335 7.91133 81.2327 9.08963C82.1303 10.2679 82.5792 11.7621 82.5792 13.5477Z" fill="url(#paint1_radial_278_4)"/>
  <path class="pathAnim" d="M107.144 13.5477C107.144 15.3334 106.732 16.864 105.907 18.1152C105.082 19.3664 104.063 20.3139 102.85 20.9577C101.637 21.6015 100.29 21.9416 98.8224 21.9781C97.3545 22.0145 95.9837 21.7594 94.6979 21.2249C93.412 20.6904 92.3202 19.8523 91.4225 18.6983C90.5249 17.5564 90.0154 16.0866 89.8698 14.3009C89.7242 12.4423 90.0639 10.8875 90.8888 9.62412C91.7137 8.37293 92.7691 7.42543 94.0549 6.78162C95.3408 6.1378 96.7359 5.79767 98.2401 5.76123C99.7443 5.72479 101.151 5.97988 102.474 6.51437C103.796 7.04886 104.9 7.91133 105.798 9.08963C106.695 10.2679 107.144 11.7621 107.144 13.5477Z" fill="url(#paint2_radial_278_4)"/>
  <path class="pathAnim" d="M131.697 13.5477C131.697 15.3334 131.285 16.864 130.46 18.1152C129.635 19.3664 128.616 20.3139 127.403 20.9577C126.19 21.6015 124.843 21.9416 123.387 21.9781C121.92 22.0145 120.549 21.7594 119.263 21.2249C117.977 20.6904 116.885 19.8523 115.988 18.6983C115.09 17.5564 114.58 16.0866 114.435 14.3009C114.289 12.4423 114.629 10.8875 115.454 9.62412C116.279 8.37293 117.334 7.42543 118.62 6.78162C119.906 6.1378 121.301 5.79767 122.805 5.76123C124.309 5.72479 125.716 5.97988 127.039 6.51437C128.361 7.04886 129.465 7.91133 130.363 9.08963C131.26 10.2679 131.697 11.7621 131.697 13.5477Z" fill="url(#paint3_radial_278_4)"/>
  <path class="pathAnim" d="M156.25 13.5477C156.25 15.3334 155.837 16.864 155.013 18.1152C154.188 19.3664 153.169 20.3139 151.956 20.9577C150.742 21.6015 149.396 21.9416 147.94 21.9781C146.472 22.0145 145.102 21.7594 143.816 21.2249C142.53 20.6904 141.438 19.8523 140.54 18.6983C139.643 17.5564 139.133 16.0866 138.988 14.3009C138.842 12.4423 139.182 10.8875 140.007 9.62412C140.832 8.37293 141.887 7.42543 143.173 6.78162C144.459 6.1378 145.854 5.79767 147.358 5.76123C148.862 5.72479 150.269 5.97988 151.592 6.51437C152.914 7.04886 154.018 7.91133 154.915 9.08963C155.813 10.2679 156.25 11.7621 156.25 13.5477Z" fill="url(#paint4_radial_278_4)"/>
  <path class="pathAnim" d="M180.803 13.5477C180.803 15.3334 180.39 16.864 179.565 18.1152C178.74 19.3664 177.721 20.3139 176.508 20.9577C175.295 21.6015 173.949 21.9416 172.493 21.9781C171.025 22.0145 169.654 21.7594 168.369 21.2249C167.083 20.6904 165.991 19.8523 165.093 18.6983C164.196 17.5564 163.686 16.0866 163.541 14.3009C163.395 12.4423 163.735 10.8875 164.559 9.62412C165.384 8.37293 166.44 7.42543 167.726 6.78162C169.012 6.1378 170.407 5.79767 171.911 5.76123C173.415 5.72479 174.822 5.97988 176.144 6.51437C177.467 7.04886 178.571 7.91133 179.468 9.08963C180.366 10.2679 180.803 11.7621 180.803 13.5477Z" fill="url(#paint5_radial_278_4)"/>
  <path class="pathAnim" d="M205.368 13.5477C205.368 15.3334 204.955 16.864 204.13 18.1152C203.305 19.3664 202.286 20.3139 201.073 20.9577C199.86 21.6015 198.514 21.9416 197.058 21.9781C195.59 22.0145 194.219 21.7594 192.934 21.2249C191.648 20.6904 190.556 19.8523 189.658 18.6983C188.761 17.5564 188.251 16.0866 188.105 14.3009C187.96 12.4423 188.3 10.8875 189.124 9.62412C189.949 8.37293 191.005 7.42543 192.291 6.78162C193.577 6.1378 194.972 5.79767 196.476 5.76123C197.98 5.72479 199.387 5.97988 200.709 6.51437C202.032 7.04886 203.136 7.91133 204.033 9.08963C204.931 10.2679 205.38 11.7621 205.38 13.5477H205.368Z" fill="url(#paint6_radial_278_4)"/>
  <path class="pathAnim" d="M229.921 13.5477C229.921 15.3334 229.508 16.864 228.683 18.1152C227.858 19.3664 226.839 20.3139 225.626 20.9577C224.413 21.6015 223.067 21.9416 221.599 21.9781C220.131 22.0145 218.76 21.7594 217.474 21.2249C216.188 20.6904 215.097 19.8523 214.199 18.6983C213.301 17.5564 212.792 16.0866 212.646 14.3009C212.501 12.4423 212.84 10.8875 213.665 9.62412C214.49 8.37293 215.545 7.42543 216.831 6.78162C218.117 6.1378 219.512 5.79767 221.017 5.76123C222.521 5.72479 223.928 5.97988 225.25 6.51437C226.572 7.04886 227.676 7.91133 228.574 9.08963C229.472 10.2679 229.921 11.7621 229.921 13.5477Z" fill="url(#paint7_radial_278_4)"/>
  <path class="pathAnim" d="M254.486 13.5477C254.486 15.3334 254.073 16.864 253.248 18.1152C252.423 19.3664 251.404 20.3139 250.191 20.9577C248.978 21.6015 247.632 21.9416 246.164 21.9781C244.696 22.0145 243.325 21.7594 242.039 21.2249C240.753 20.6904 239.662 19.8523 238.764 18.6983C237.866 17.5564 237.357 16.0866 237.211 14.3009C237.066 12.4423 237.405 10.8875 238.23 9.62412C239.055 8.37293 240.11 7.42543 241.396 6.78162C242.682 6.1378 244.077 5.79767 245.581 5.76123C247.086 5.72479 248.493 5.97988 249.815 6.51437C251.137 7.04886 252.241 7.91133 253.139 9.08963C254.037 10.2679 254.486 11.7621 254.486 13.5477Z" fill="url(#paint8_radial_278_4)"/>
  <path class="pathAnim" d="M279.038 13.5477C279.038 15.3334 278.626 16.864 277.801 18.1152C276.976 19.3664 275.957 20.3139 274.744 20.9577C273.531 21.6015 272.184 21.9416 270.717 21.9781C269.249 22.0145 267.878 21.7594 266.592 21.2249C265.306 20.6904 264.214 19.8523 263.317 18.6983C262.419 17.5564 261.91 16.0866 261.764 14.3009C261.618 12.4423 261.958 10.8875 262.783 9.62412C263.608 8.37293 264.663 7.42543 265.949 6.78162C267.235 6.1378 268.63 5.79767 270.134 5.76123C271.639 5.72479 273.046 5.97988 274.368 6.51437C275.69 7.04886 276.794 7.91133 277.692 9.08963C278.59 10.2679 279.026 11.7621 279.026 13.5477H279.038Z" fill="url(#paint9_radial_278_4)"/>
  <path class="pathAnim" d="M303.591 13.5477C303.591 15.3334 303.179 16.864 302.354 18.1152C301.529 19.3664 300.51 20.3139 299.297 20.9577C298.084 21.6015 296.737 21.9416 295.282 21.9781C293.814 22.0145 292.443 21.7594 291.157 21.2249C289.871 20.6904 288.779 19.8523 287.882 18.6983C286.984 17.5564 286.475 16.0866 286.329 14.3009C286.183 12.4423 286.523 10.8875 287.348 9.62412C288.173 8.37293 289.228 7.42543 290.514 6.78162C291.8 6.1378 293.195 5.79767 294.699 5.76123C296.204 5.72479 297.611 5.97988 298.933 6.51437C300.255 7.04886 301.359 7.91133 302.257 9.08963C303.155 10.2679 303.591 11.7621 303.591 13.5477Z" fill="url(#paint10_radial_278_4)"/>
  <path class="pathAnim" d="M328.144 13.5477C328.144 15.3334 327.732 16.864 326.907 18.1152C326.082 19.3664 325.063 20.3139 323.85 20.9577C322.637 21.6015 321.29 21.9416 319.834 21.9781C318.367 22.0145 316.996 21.7594 315.71 21.2249C314.424 20.6904 313.332 19.8523 312.435 18.6983C311.537 17.5564 311.027 16.0866 310.882 14.3009C310.736 12.4423 311.076 10.8875 311.901 9.62412C312.726 8.37293 313.781 7.42543 315.067 6.78162C316.353 6.1378 317.748 5.79767 319.252 5.76123C320.756 5.72479 322.164 5.97988 323.486 6.51437C324.808 7.04886 325.912 7.91133 326.81 9.08963C327.707 10.2679 328.156 11.7621 328.156 13.5477H328.144Z" fill="url(#paint11_radial_278_4)"/>
  <path class="pathAnim" d="M352.709 13.5477C352.709 15.3334 352.297 16.864 351.472 18.1152C350.647 19.3664 349.628 20.3139 348.415 20.9577C347.202 21.6015 345.855 21.9416 344.387 21.9781C342.919 22.0145 341.549 21.7594 340.263 21.2249C338.977 20.6904 337.885 19.8523 336.987 18.6983C336.09 17.5564 335.58 16.0866 335.435 14.3009C335.289 12.4423 335.629 10.8875 336.454 9.62412C337.279 8.37293 338.334 7.42543 339.62 6.78162C340.906 6.1378 342.301 5.79767 343.805 5.76123C345.309 5.72479 346.716 5.97988 348.039 6.51437C349.361 7.04886 350.465 7.91133 351.363 9.08963C352.26 10.2679 352.709 11.7621 352.709 13.5477Z" fill="url(#paint12_radial_278_4)"/>
  <path class="pathAnim" d="M377.408 13.7787C377.359 15.5643 376.91 17.0828 376.061 18.3097C375.212 19.5366 374.169 20.4598 372.931 21.0793C371.706 21.6988 370.347 22.0025 368.892 22.0025C367.436 22.0025 366.053 21.7109 364.779 21.1522C363.506 20.5812 362.438 19.7188 361.577 18.5526C360.715 17.3865 360.23 15.9045 360.133 14.1066C360.036 12.2481 360.412 10.6932 361.273 9.46632C362.123 8.23943 363.202 7.31622 364.512 6.6967C365.81 6.08933 367.218 5.78564 368.722 5.78564C370.226 5.78564 371.633 6.07719 372.943 6.64812C374.253 7.21905 375.333 8.10581 376.207 9.30841C377.068 10.511 377.48 12.0051 377.432 13.803L377.408 13.7787Z" fill="url(#paint13_radial_278_4)"/>
  <path class="pathAnim" d="M402.979 20.6785C402.276 22.3184 401.293 23.5574 400.044 24.3835C398.794 25.2095 397.484 25.6711 396.113 25.7926C394.743 25.9019 393.372 25.6832 392.013 25.1366C390.654 24.59 389.49 23.8125 388.519 22.8165C387.549 21.8082 386.882 20.6056 386.506 19.2087C386.142 17.7996 386.239 16.2447 386.809 14.544C387.415 12.7827 388.337 11.4829 389.587 10.6569C390.836 9.83083 392.183 9.38138 393.614 9.29635C395.046 9.21131 396.465 9.45426 397.86 10.013C399.255 10.5718 400.456 11.3614 401.451 12.3818C402.458 13.4022 403.137 14.6291 403.489 16.0625C403.841 17.4959 403.671 19.0386 402.967 20.6906L402.979 20.6785Z" fill="url(#paint14_radial_278_4)"/>
  <path class="pathAnim" d="M419.938 43.5643C418.373 44.4267 416.845 44.8033 415.353 44.6818C413.861 44.5604 412.538 44.1231 411.386 43.3699C410.234 42.6168 409.287 41.5964 408.56 40.3331C407.82 39.0697 407.383 37.7335 407.225 36.3487C407.08 34.9639 407.286 33.6034 407.856 32.2672C408.426 30.9309 409.457 29.7648 410.961 28.7808C412.526 27.7605 414.043 27.311 415.535 27.4203C417.027 27.5418 418.361 28.0034 419.55 28.8294C420.739 29.6433 421.709 30.7123 422.462 32.0121C423.214 33.3118 423.675 34.6724 423.844 36.0936C424.014 37.5149 423.796 38.8997 423.189 40.248C422.583 41.5964 421.503 42.714 419.938 43.5764V43.5643Z" fill="url(#paint15_radial_278_4)"/>
  <path class="pathAnim" d="M421.224 71.1024C419.441 71.1753 417.9 70.8352 416.614 70.0699C415.329 69.3046 414.334 68.3207 413.642 67.1424C412.951 65.9519 412.551 64.6279 412.454 63.1702C412.357 61.7003 412.539 60.3155 413.024 59.0036C413.509 57.6917 414.297 56.5619 415.401 55.6144C416.505 54.6669 417.949 54.0839 419.72 53.8652C421.576 53.6344 423.141 53.9138 424.427 54.6791C425.713 55.4444 426.707 56.4648 427.399 57.716C428.102 58.9793 428.503 60.3519 428.6 61.8582C428.697 63.3524 428.515 64.7858 428.042 66.122C427.569 67.4703 426.756 68.6122 425.616 69.5597C424.475 70.5072 423.02 71.0174 421.224 71.1024Z" fill="url(#paint16_radial_278_4)"/>
  <path class="pathAnim" d="M420.836 95.9562C419.053 95.9562 417.524 95.5432 416.275 94.7172C415.025 93.8912 414.079 92.8708 413.436 91.656C412.793 90.4413 412.454 89.0929 412.417 87.6231C412.381 86.1533 412.636 84.7806 413.169 83.493C413.703 82.2053 414.54 81.1121 415.692 80.2132C416.833 79.3142 418.301 78.8041 420.084 78.6583C421.94 78.5125 423.493 78.8526 424.754 79.6787C426.004 80.5047 426.95 81.5615 427.593 82.8492C428.236 84.1368 428.575 85.5337 428.612 87.04C428.648 88.5463 428.393 89.9554 427.86 91.2795C427.326 92.6036 426.465 93.709 425.288 94.6079C424.111 95.5068 422.619 95.9562 420.836 95.9562Z" fill="url(#paint17_radial_278_4)"/>
  <path class="pathAnim" d="M420.836 120.542C419.053 120.542 417.524 120.129 416.275 119.303C415.025 118.477 414.079 117.457 413.436 116.242C412.793 115.027 412.454 113.679 412.417 112.221C412.381 110.751 412.636 109.379 413.169 108.091C413.703 106.803 414.54 105.71 415.692 104.811C416.833 103.912 418.301 103.402 420.084 103.256C421.94 103.111 423.493 103.451 424.754 104.277C426.004 105.103 426.95 106.16 427.593 107.447C428.236 108.735 428.575 110.132 428.612 111.638C428.648 113.144 428.393 114.554 427.86 115.878C427.326 117.202 426.465 118.307 425.288 119.206C424.111 120.105 422.619 120.542 420.836 120.542Z" fill="url(#paint18_radial_278_4)"/>
  <path class="pathAnim" d="M420.836 145.141C419.053 145.141 417.524 144.728 416.275 143.902C415.025 143.076 414.079 142.055 413.436 140.841C412.793 139.626 412.454 138.278 412.417 136.82C412.381 135.35 412.636 133.977 413.169 132.69C413.703 131.402 414.54 130.309 415.692 129.41C416.833 128.511 418.301 128.001 420.084 127.855C421.94 127.709 423.493 128.049 424.754 128.875C426.004 129.701 426.95 130.758 427.593 132.046C428.236 133.334 428.575 134.731 428.612 136.237C428.648 137.743 428.393 139.152 427.86 140.476C427.326 141.8 426.465 142.906 425.288 143.805C424.111 144.704 422.619 145.141 420.836 145.141Z" fill="url(#paint19_radial_278_4)"/>
  <path class="pathAnim" d="M420.836 169.727C419.053 169.727 417.524 169.314 416.275 168.488C415.025 167.662 414.079 166.642 413.436 165.427C412.793 164.212 412.454 162.864 412.417 161.406C412.381 159.936 412.636 158.564 413.169 157.276C413.703 155.989 414.54 154.895 415.692 153.996C416.833 153.097 418.301 152.587 420.084 152.441C421.94 152.296 423.493 152.636 424.754 153.462C426.004 154.288 426.95 155.345 427.593 156.632C428.236 157.92 428.575 159.317 428.612 160.823C428.648 162.33 428.393 163.739 427.86 165.063C427.326 166.387 426.465 167.492 425.288 168.391C424.111 169.29 422.619 169.727 420.836 169.727Z" fill="url(#paint20_radial_278_4)"/>
  <path class="pathAnim" d="M420.836 194.314C419.053 194.314 417.524 193.901 416.275 193.075C415.025 192.249 414.079 191.228 413.436 190.014C412.793 188.799 412.454 187.45 412.417 185.993C412.381 184.523 412.636 183.15 413.169 181.863C413.703 180.575 414.54 179.482 415.692 178.583C416.833 177.684 418.301 177.174 420.084 177.028C421.94 176.882 423.493 177.222 424.754 178.048C426.004 178.874 426.95 179.931 427.593 181.219C428.236 182.506 428.575 183.903 428.612 185.41C428.648 186.916 428.393 188.325 427.86 189.649C427.326 190.973 426.465 192.079 425.288 192.978C424.111 193.876 422.619 194.326 420.836 194.326V194.314Z" fill="url(#paint21_radial_278_4)"/>
  <path class="pathAnim" d="M419.938 219.447C418.155 219.265 416.687 218.706 415.523 217.759C414.358 216.811 413.521 215.706 412.999 214.43C412.478 213.155 412.272 211.782 412.381 210.324C412.49 208.855 412.878 207.518 413.533 206.291C414.2 205.065 415.134 204.056 416.36 203.279C417.585 202.501 419.101 202.137 420.884 202.161C422.753 202.21 424.257 202.696 425.421 203.643C426.586 204.591 427.423 205.733 427.932 207.081C428.442 208.429 428.648 209.851 428.527 211.345C428.418 212.839 428.03 214.224 427.362 215.487C426.695 216.75 425.737 217.771 424.475 218.548C423.214 219.326 421.697 219.617 419.914 219.447H419.938Z" fill="url(#paint22_radial_278_4)"/>
  <path class="pathAnim" d="M407.164 243.669C405.721 242.612 404.75 241.373 404.229 239.964C403.707 238.555 403.55 237.17 403.756 235.81C403.962 234.449 404.484 233.161 405.321 231.959C406.158 230.756 407.177 229.797 408.378 229.08C409.566 228.363 410.901 227.975 412.344 227.938C413.8 227.902 415.28 228.351 416.809 229.299C418.386 230.283 419.441 231.485 419.963 232.894C420.484 234.303 420.618 235.712 420.375 237.134C420.132 238.555 419.574 239.879 418.713 241.106C417.852 242.333 416.809 243.329 415.595 244.07C414.382 244.823 413.036 245.2 411.556 245.224C410.076 245.248 408.62 244.726 407.177 243.657L407.164 243.669Z" fill="url(#paint23_radial_278_4)"/>
  <path class="pathAnim" d="M380.962 254.784C380.452 253.071 380.416 251.492 380.853 250.058C381.289 248.625 381.993 247.422 382.976 246.463C383.958 245.503 385.147 244.799 386.542 244.349C387.937 243.9 389.332 243.754 390.715 243.9C392.098 244.045 393.384 244.556 394.561 245.394C395.737 246.244 396.647 247.495 397.29 249.172C397.957 250.921 398.066 252.512 397.63 253.946C397.193 255.379 396.453 256.594 395.398 257.566C394.342 258.55 393.105 259.266 391.673 259.728C390.242 260.189 388.823 260.347 387.403 260.202C385.984 260.056 384.674 259.546 383.485 258.671C382.296 257.784 381.447 256.497 380.938 254.772L380.962 254.784Z" fill="url(#paint24_radial_278_4)"/>
  <path class="pathAnim" d="M354.529 253.97C354.529 252.184 354.929 250.654 355.754 249.402C356.579 248.151 357.586 247.192 358.799 246.548C360.012 245.904 361.358 245.552 362.814 245.515C364.282 245.479 365.653 245.722 366.939 246.256C368.224 246.791 369.316 247.629 370.214 248.771C371.112 249.913 371.633 251.383 371.779 253.168C371.924 255.027 371.597 256.582 370.772 257.845C369.959 259.096 368.904 260.056 367.618 260.7C366.332 261.343 364.937 261.696 363.433 261.732C361.929 261.769 360.521 261.526 359.199 260.991C357.877 260.457 356.761 259.606 355.863 258.428C354.965 257.25 354.517 255.768 354.504 253.97H354.529Z" fill="url(#paint25_radial_278_4)"/>
  <path class="pathAnim" d="M329.952 253.945C329.952 252.16 330.364 250.629 331.189 249.378C332.014 248.127 333.033 247.179 334.246 246.536C335.459 245.892 336.806 245.552 338.273 245.515C339.741 245.479 341.112 245.734 342.398 246.268C343.684 246.803 344.775 247.641 345.673 248.795C346.571 249.937 347.08 251.407 347.226 253.192C347.371 255.051 347.032 256.606 346.207 257.869C345.382 259.12 344.327 260.068 343.041 260.712C341.755 261.355 340.36 261.696 338.856 261.732C337.351 261.768 335.944 261.513 334.622 260.979C333.3 260.444 332.196 259.582 331.298 258.404C330.4 257.225 329.964 255.731 329.964 253.945H329.952Z" fill="url(#paint26_radial_278_4)"/>
  <path class="pathAnim" d="M305.399 253.945C305.399 252.16 305.811 250.629 306.636 249.378C307.461 248.127 308.48 247.179 309.693 246.536C310.906 245.892 312.253 245.552 313.708 245.515C315.176 245.479 316.547 245.734 317.833 246.268C319.119 246.803 320.21 247.641 321.108 248.795C322.006 249.937 322.515 251.407 322.661 253.192C322.806 255.051 322.467 256.606 321.642 257.869C320.817 259.12 319.762 260.068 318.476 260.712C317.19 261.355 315.795 261.696 314.291 261.732C312.786 261.768 311.379 261.513 310.057 260.979C308.735 260.444 307.631 259.582 306.733 258.404C305.835 257.225 305.399 255.731 305.399 253.945Z" fill="url(#paint27_radial_278_4)"/>
  <path class="pathAnim" d="M280.834 253.945C280.834 252.16 281.246 250.629 282.071 249.378C282.896 248.127 283.915 247.179 285.128 246.536C286.341 245.892 287.688 245.552 289.155 245.515C290.623 245.479 291.994 245.734 293.28 246.268C294.566 246.803 295.658 247.641 296.555 248.795C297.453 249.949 297.962 251.407 298.108 253.192C298.254 255.051 297.914 256.606 297.089 257.869C296.264 259.12 295.209 260.068 293.923 260.712C292.637 261.355 291.242 261.696 289.738 261.732C288.234 261.768 286.826 261.513 285.504 260.979C284.182 260.444 283.078 259.582 282.18 258.404C281.283 257.225 280.834 255.731 280.834 253.945Z" fill="url(#paint28_radial_278_4)"/>
  <path class="pathAnim" d="M256.281 253.945C256.281 252.16 256.693 250.629 257.518 249.378C258.343 248.127 259.362 247.179 260.575 246.536C261.788 245.892 263.135 245.552 264.603 245.515C266.071 245.479 267.441 245.734 268.727 246.268C270.013 246.803 271.105 247.641 272.002 248.795C272.9 249.937 273.41 251.407 273.555 253.192C273.701 255.051 273.361 256.606 272.536 257.869C271.711 259.12 270.656 260.068 269.37 260.712C268.084 261.355 266.689 261.696 265.185 261.732C263.681 261.768 262.274 261.513 260.951 260.979C259.629 260.444 258.525 259.582 257.627 258.404C256.73 257.225 256.281 255.731 256.281 253.945Z" fill="url(#paint29_radial_278_4)"/>
  <path class="pathAnim" d="M231.728 253.945C231.728 252.16 232.14 250.629 232.965 249.378C233.79 248.127 234.809 247.179 236.022 246.536C237.235 245.892 238.582 245.552 240.05 245.515C241.518 245.479 242.888 245.734 244.174 246.268C245.46 246.803 246.552 247.641 247.45 248.795C248.347 249.937 248.857 251.407 249.002 253.192C249.148 255.051 248.808 256.606 247.983 257.869C247.158 259.12 246.103 260.068 244.817 260.712C243.531 261.355 242.136 261.696 240.632 261.732C239.128 261.768 237.721 261.513 236.398 260.979C235.076 260.444 233.972 259.582 233.075 258.404C232.177 257.225 231.728 255.731 231.728 253.945Z" fill="url(#paint30_radial_278_4)"/>
  <path class="pathAnim" d="M207.163 253.945C207.163 252.16 207.576 250.629 208.4 249.378C209.225 248.127 210.244 247.179 211.457 246.536C212.67 245.892 214.017 245.552 215.473 245.515C216.941 245.479 218.311 245.734 219.597 246.268C220.883 246.803 221.975 247.641 222.873 248.795C223.77 249.937 224.28 251.407 224.425 253.192C224.571 255.051 224.231 256.606 223.406 257.869C222.581 259.12 221.526 260.068 220.24 260.712C218.954 261.355 217.559 261.696 216.055 261.732C214.551 261.768 213.144 261.513 211.821 260.979C210.499 260.444 209.395 259.582 208.497 258.404C207.6 257.225 207.163 255.731 207.163 253.945Z" fill="url(#paint31_radial_278_4)"/>
  <path class="pathAnim" d="M182.61 253.945C182.61 252.16 183.023 250.629 183.848 249.378C184.672 248.127 185.691 247.179 186.905 246.536C188.118 245.892 189.464 245.552 190.92 245.515C192.388 245.479 193.758 245.734 195.044 246.268C196.33 246.803 197.422 247.641 198.32 248.795C199.217 249.937 199.727 251.407 199.872 253.192C200.018 255.051 199.678 256.606 198.853 257.869C198.029 259.12 196.973 260.068 195.687 260.712C194.401 261.355 193.006 261.696 191.502 261.732C189.998 261.768 188.591 261.513 187.268 260.979C185.946 260.444 184.842 259.582 183.945 258.404C183.047 257.225 182.61 255.731 182.61 253.945Z" fill="url(#paint32_radial_278_4)"/>
  <path class="pathAnim" d="M158.057 253.945C158.057 252.16 158.47 250.629 159.295 249.378C160.12 248.127 161.139 247.179 162.352 246.536C163.565 245.892 164.911 245.552 166.367 245.515C167.835 245.479 169.206 245.734 170.491 246.268C171.777 246.803 172.869 247.641 173.767 248.795C174.664 249.937 175.174 251.407 175.32 253.192C175.465 255.051 175.125 256.606 174.301 257.869C173.476 259.12 172.42 260.068 171.134 260.712C169.849 261.355 168.453 261.696 166.949 261.732C165.445 261.768 164.038 261.513 162.716 260.979C161.393 260.444 160.289 259.582 159.392 258.404C158.494 257.225 158.057 255.731 158.057 253.945Z" fill="url(#paint33_radial_278_4)"/>
  <path class="pathAnim" d="M133.492 253.945C133.492 252.16 133.905 250.629 134.73 249.378C135.555 248.127 136.574 247.179 137.787 246.536C139 245.892 140.346 245.552 141.814 245.515C143.282 245.479 144.653 245.734 145.939 246.268C147.224 246.803 148.316 247.641 149.214 248.795C150.112 249.949 150.621 251.407 150.767 253.192C150.912 255.051 150.573 256.606 149.748 257.869C148.923 259.12 147.867 260.068 146.582 260.712C145.296 261.355 143.901 261.696 142.396 261.732C140.892 261.768 139.485 261.513 138.163 260.979C136.84 260.444 135.737 259.582 134.839 258.404C133.941 257.225 133.492 255.731 133.492 253.945Z" fill="url(#paint34_radial_278_4)"/>
  <path class="pathAnim" d="M108.94 253.945C108.94 252.16 109.352 250.629 110.177 249.378C111.002 248.127 112.021 247.179 113.234 246.536C114.447 245.892 115.793 245.552 117.249 245.515C118.717 245.479 120.088 245.734 121.374 246.268C122.66 246.803 123.751 247.641 124.649 248.795C125.547 249.937 126.056 251.407 126.202 253.192C126.347 255.051 126.008 256.606 125.183 257.869C124.358 259.12 123.302 260.068 122.017 260.712C120.731 261.355 119.336 261.696 117.831 261.732C116.327 261.768 114.92 261.513 113.598 260.979C112.275 260.444 111.172 259.582 110.274 258.404C109.376 257.225 108.927 255.731 108.927 253.945H108.94Z" fill="url(#paint35_radial_278_4)"/>
  <path class="pathAnim" d="M84.3867 253.945C84.3867 252.16 84.7991 250.629 85.624 249.378C86.4489 248.127 87.4679 247.179 88.681 246.536C89.8941 245.892 91.2406 245.552 92.7084 245.515C94.1763 245.479 95.547 245.734 96.8329 246.268C98.1188 246.803 99.2106 247.641 100.108 248.795C101.006 249.937 101.515 251.407 101.661 253.192C101.807 255.051 101.467 256.606 100.642 257.869C99.8171 259.12 98.7617 260.068 97.4759 260.712C96.19 261.355 94.7949 261.696 93.2907 261.732C91.7865 261.768 90.3793 261.513 89.057 260.979C87.7348 260.444 86.6309 259.582 85.7332 258.404C84.8355 257.225 84.3867 255.731 84.3867 253.945Z" fill="url(#paint36_radial_278_4)"/>
  <path class="pathAnim" d="M59.7489 253.824C59.7731 252.039 60.2099 250.52 61.0469 249.281C61.8839 248.042 62.915 247.107 64.1403 246.475C65.3655 245.844 66.712 245.528 68.1798 245.516C69.6477 245.503 71.0185 245.771 72.2922 246.317C73.5659 246.876 74.6456 247.726 75.5311 248.88C76.4046 250.034 76.914 251.516 77.0232 253.302C77.1445 255.161 76.7806 256.716 75.9436 257.955C75.1065 259.194 74.039 260.129 72.741 260.761C71.443 261.392 70.048 261.708 68.5438 261.72C67.0395 261.732 65.6323 261.465 64.3222 260.919C63.0121 260.36 61.9082 259.485 61.0348 258.295C60.1613 257.104 59.7246 255.61 59.7489 253.824Z" fill="url(#paint37_radial_278_4)"/>
  <path class="pathAnim" d="M34.0557 248.042C34.6865 246.366 35.6085 245.09 36.8094 244.203C38.0225 243.317 39.3084 242.794 40.6671 242.612C42.0257 242.442 43.4086 242.588 44.7915 243.074C46.1745 243.56 47.3754 244.276 48.3944 245.236C49.4134 246.196 50.1413 247.362 50.5658 248.747C51.0025 250.131 50.9662 251.686 50.4688 253.411C49.9472 255.197 49.0859 256.545 47.8728 257.42C46.6597 258.307 45.3374 258.817 43.9181 258.975C42.4867 259.121 41.0674 258.95 39.6481 258.452C38.2288 257.954 36.9914 257.226 35.9482 256.254C34.9049 255.282 34.1649 254.091 33.7403 252.67C33.3158 251.249 33.4249 249.706 34.0557 248.03V248.042Z" fill="url(#paint38_radial_278_4)"/>
  <path class="pathAnim" d="M16.0171 226.091C17.5335 225.144 19.0377 224.682 20.5298 224.719C22.0219 224.755 23.3684 225.12 24.5573 225.8C25.7461 226.492 26.7408 227.452 27.5536 228.679C28.3664 229.906 28.8759 231.206 29.1063 232.578C29.3368 233.951 29.2034 235.324 28.706 236.696C28.2087 238.057 27.2382 239.284 25.8067 240.353C24.3025 241.458 22.8104 241.992 21.3062 241.956C19.8141 241.92 18.4433 241.531 17.2181 240.778C15.9929 240.025 14.9618 239.016 14.1369 237.765C13.312 236.514 12.7782 235.178 12.5235 233.769C12.2808 232.36 12.4143 230.963 12.948 229.578C13.4697 228.193 14.5008 227.027 16.0171 226.079V226.091Z" fill="url(#paint39_radial_278_4)"/>
  <path class="pathAnim" d="M13.7487 198.468C15.5319 198.359 17.0725 198.675 18.3705 199.416C19.6685 200.157 20.6754 201.117 21.3911 202.295C22.1068 203.473 22.5314 204.785 22.6527 206.255C22.774 207.713 22.6163 209.11 22.1554 210.421C21.6944 211.746 20.9301 212.887 19.8384 213.847C18.7466 214.807 17.3152 215.414 15.544 215.669C13.7002 215.924 12.1231 215.681 10.8251 214.94C9.52714 214.199 8.52028 213.203 7.79243 211.952C7.07671 210.701 6.64 209.328 6.51869 207.834C6.38525 206.34 6.55508 204.906 7.00393 203.558C7.4649 202.198 8.24127 201.044 9.36944 200.072C10.4855 199.1 11.9412 198.566 13.7244 198.456L13.7487 198.468Z" fill="url(#paint40_radial_278_4)"/>
  <path class="pathAnim" d="M14.2825 173.505C16.0657 173.505 17.5942 173.918 18.8437 174.744C20.0931 175.57 21.0393 176.591 21.6823 177.806C22.3252 179.02 22.6649 180.369 22.7013 181.839C22.7377 183.308 22.4829 184.681 21.9492 185.969C21.4154 187.256 20.5784 188.35 19.4259 189.248C18.2856 190.147 16.8178 190.658 15.0346 190.803C13.1785 190.949 11.6258 190.609 10.3763 189.783C9.12684 188.957 8.18063 187.9 7.5377 186.612C6.89476 185.325 6.5551 183.928 6.5187 182.422C6.48231 180.915 6.73706 179.506 7.27082 178.182C7.80457 176.858 8.66587 175.753 9.84256 174.854C11.0193 173.955 12.4992 173.518 14.2946 173.518L14.2825 173.505Z" fill="url(#paint41_radial_278_4)"/>
  <path class="pathAnim" d="M14.2825 148.907C16.0657 148.907 17.5942 149.32 18.8437 150.146C20.0931 150.972 21.0393 151.992 21.6823 153.207C22.3252 154.422 22.6649 155.77 22.7013 157.228C22.7377 158.698 22.4829 160.07 21.9492 161.358C21.4154 162.645 20.5784 163.739 19.4259 164.638C18.2856 165.537 16.8178 166.047 15.0346 166.193C13.1785 166.338 11.6258 165.998 10.3763 165.172C9.12684 164.346 8.18063 163.289 7.5377 162.002C6.89476 160.714 6.5551 159.317 6.5187 157.811C6.48231 156.305 6.73706 154.895 7.27082 153.571C7.80457 152.247 8.66587 151.142 9.84256 150.243C11.0193 149.344 12.4992 148.907 14.2946 148.907H14.2825Z" fill="url(#paint42_radial_278_4)"/>
  <path class="pathAnim" d="M14.2825 124.32C16.0657 124.32 17.5942 124.733 18.8437 125.559C20.0931 126.385 21.0393 127.406 21.6823 128.62C22.3252 129.835 22.6649 131.184 22.7013 132.641C22.7377 134.111 22.4829 135.484 21.9492 136.771C21.4154 138.059 20.5784 139.152 19.4259 140.051C18.2856 140.95 16.8178 141.46 15.0346 141.606C13.1785 141.752 11.6258 141.412 10.3763 140.586C9.12684 139.76 8.18063 138.703 7.5377 137.415C6.89476 136.128 6.5551 134.731 6.5187 133.224C6.48231 131.718 6.73706 130.309 7.27082 128.985C7.80457 127.661 8.66587 126.555 9.84256 125.656C11.0193 124.758 12.4992 124.308 14.2946 124.308L14.2825 124.32Z" fill="url(#paint43_radial_278_4)"/>
  <path class="pathAnim" d="M14.2825 99.7339C16.0657 99.7339 17.5942 100.147 18.8437 100.973C20.0931 101.799 21.0393 102.819 21.6823 104.034C22.3252 105.249 22.6649 106.597 22.7013 108.067C22.7377 109.537 22.4829 110.91 21.9492 112.197C21.4154 113.485 20.5784 114.578 19.4259 115.477C18.2856 116.376 16.8178 116.886 15.0346 117.032C13.1785 117.178 11.6258 116.837 10.3763 116.011C9.12684 115.185 8.18063 114.129 7.5377 112.841C6.89476 111.553 6.5551 110.156 6.5187 108.65C6.48231 107.144 6.73706 105.735 7.27082 104.411C7.80457 103.087 8.66587 101.981 9.84256 101.082C11.0193 100.183 12.4992 99.7339 14.2946 99.7339H14.2825Z" fill="url(#paint44_radial_278_4)"/>
  <path class="pathAnim" d="M14.2825 75.1353C16.0657 75.1353 17.5942 75.5483 18.8437 76.3743C20.0931 77.2003 21.0393 78.2207 21.6823 79.4355C22.3252 80.6502 22.6649 81.9986 22.7013 83.4684C22.7377 84.9382 22.4829 86.3109 21.9492 87.5985C21.4154 88.8862 20.5784 89.9794 19.4259 90.8783C18.2856 91.7773 16.8178 92.2874 15.0346 92.4332C13.1785 92.579 11.6258 92.2389 10.3763 91.4128C9.12684 90.5868 8.18063 89.53 7.5377 88.2423C6.89476 86.9547 6.5551 85.5578 6.5187 84.0515C6.48231 82.5452 6.73706 81.1361 7.27082 79.812C7.80457 78.4879 8.66587 77.3825 9.84256 76.4836C11.0193 75.5847 12.4992 75.1353 14.2946 75.1353H14.2825Z" fill="url(#paint45_radial_278_4)"/>
  <path class="pathAnim" d="M14.9618 50.1358C16.745 50.2694 18.225 50.7917 19.4138 51.715C20.6026 52.626 21.4639 53.7193 22.0219 54.9826C22.5678 56.2459 22.8104 57.6065 22.7376 59.0763C22.6649 60.5461 22.3131 61.8945 21.6823 63.1457C21.0515 64.3847 20.1295 65.4173 18.9164 66.219C17.7033 67.0207 16.2113 67.4337 14.4159 67.4459C12.5477 67.4459 11.0314 66.9964 9.84255 66.0732C8.65373 65.1622 7.79244 64.0324 7.24655 62.6962C6.70066 61.36 6.47017 59.9509 6.54296 58.4446C6.61574 56.9383 6.97967 55.5535 7.61047 54.2781C8.24128 53.0026 9.18748 51.9579 10.4248 51.1562C11.6743 50.3544 13.1785 50.0143 14.9618 50.1479V50.1358Z" fill="url(#paint46_radial_278_4)"/>
  <path class="pathAnim" d="M26.3405 25.4399C27.8326 26.436 28.8637 27.6143 29.4581 28.9991C30.0404 30.3717 30.2709 31.7565 30.1375 33.1171C30.004 34.4897 29.5431 35.7895 28.7667 37.0407C27.9903 38.2797 27.0198 39.288 25.8553 40.0654C24.6907 40.8428 23.3927 41.2801 21.9491 41.4016C20.5056 41.5109 18.9892 41.1344 17.4243 40.2598C15.7988 39.3487 14.6949 38.2068 14.1005 36.822C13.5182 35.4494 13.312 34.0403 13.4818 32.6069C13.6638 31.1735 14.149 29.8251 14.9496 28.5496C15.7503 27.2741 16.745 26.2416 17.9217 25.4277C19.0984 24.626 20.4328 24.1765 21.9006 24.0794C23.3806 23.9822 24.8606 24.4316 26.3526 25.4277L26.3405 25.4399Z" fill="url(#paint47_radial_278_4)"/>
  <path class="pathAnim" d="M51.4514 12.6245C52.1186 14.2887 52.3127 15.8436 52.0215 17.3135C51.7304 18.7833 51.136 20.0466 50.2504 21.1034C49.3649 22.1603 48.2488 22.9742 46.9023 23.5572C45.5558 24.1403 44.185 24.4318 42.79 24.4076C41.3949 24.3954 40.0726 24.0188 38.811 23.3021C37.5494 22.5733 36.5183 21.4071 35.7177 19.8037C34.8928 18.1273 34.6138 16.5603 34.917 15.0905C35.2082 13.6206 35.8268 12.3451 36.7852 11.264C37.7314 10.1829 38.896 9.34472 40.2789 8.7495C41.6618 8.15427 43.0568 7.85059 44.4883 7.85059C45.9197 7.85059 47.2662 8.22716 48.54 8.99245C49.8137 9.74559 50.7842 10.9603 51.4514 12.6245Z" fill="url(#paint48_radial_278_4)"/>
  <path class="pathAnim" d="M107.905 13.5477C107.905 15.3334 107.492 16.864 106.667 18.1152C105.842 19.3664 104.823 20.3139 103.61 20.9577C102.397 21.6015 101.051 21.9416 99.5829 21.9781C98.1151 22.0145 96.7443 21.7594 95.4585 21.2249C94.1726 20.6904 93.0808 19.8523 92.1831 18.6983C91.2854 17.5564 90.7759 16.0866 90.6304 14.3009C90.4848 12.4423 90.8245 10.8875 91.6494 9.62412C92.4743 8.37293 93.5297 7.42543 94.8155 6.78162C96.1014 6.1378 97.4964 5.79767 99.0007 5.76123C100.505 5.72479 101.912 5.97988 103.234 6.51437C104.557 7.04886 105.661 7.91133 106.558 9.08963C107.456 10.2679 107.905 11.7621 107.905 13.5477Z" fill="url(#paint49_radial_278_4)"/>
  <path class="pathAnim" d="M130.953 13.5477C130.953 15.3334 130.541 16.864 129.716 18.1152C128.891 19.3664 127.872 20.3139 126.659 20.9577C125.446 21.6015 124.099 21.9416 122.632 21.9781C121.164 22.0145 119.793 21.7594 118.507 21.2249C117.221 20.6904 116.129 19.8523 115.232 18.6983C114.334 17.5564 113.825 16.0866 113.679 14.3009C113.533 12.4423 113.873 10.8875 114.698 9.62412C115.523 8.37293 116.578 7.42543 117.864 6.78162C119.15 6.1378 120.545 5.79767 122.049 5.76123C123.554 5.72479 124.961 5.97988 126.283 6.51437C127.605 7.04886 128.709 7.91133 129.607 9.08963C130.505 10.2679 130.953 11.7621 130.953 13.5477Z" fill="url(#paint50_radial_278_4)"/>
  <path class="pathAnim" d="M156.428 13.5477C156.428 15.3334 156.016 16.864 155.191 18.1152C154.366 19.3664 153.347 20.3139 152.134 20.9577C150.921 21.6015 149.574 21.9416 148.106 21.9781C146.639 22.0145 145.268 21.7594 143.982 21.2249C142.696 20.6904 141.604 19.8523 140.707 18.6983C139.809 17.5564 139.299 16.0866 139.154 14.3009C139.008 12.4423 139.348 10.8875 140.173 9.62412C140.998 8.37293 142.053 7.42543 143.339 6.78162C144.625 6.1378 146.02 5.79767 147.524 5.76123C149.028 5.72479 150.436 5.97988 151.758 6.51437C153.08 7.04886 154.184 7.91133 155.082 9.08963C155.979 10.2679 156.428 11.7621 156.428 13.5477Z" fill="url(#paint51_radial_278_4)"/>
  <path class="pathAnim" d="M181.903 13.5477C181.903 15.3334 181.491 16.864 180.666 18.1152C179.841 19.3664 178.822 20.3139 177.609 20.9577C176.396 21.6015 175.049 21.9416 173.581 21.9781C172.113 22.0145 170.743 21.7594 169.457 21.2249C168.171 20.6904 167.079 19.8523 166.181 18.6983C165.284 17.5564 164.774 16.0866 164.629 14.3009C164.483 12.4423 164.823 10.8875 165.648 9.62412C166.472 8.37293 167.528 7.42543 168.814 6.78162C170.1 6.1378 171.495 5.79767 172.999 5.76123C174.503 5.72479 175.91 5.97988 177.233 6.51437C178.555 7.04886 179.659 7.91133 180.556 9.08963C181.454 10.2679 181.903 11.7621 181.903 13.5477Z" fill="url(#paint52_radial_278_4)"/>
  <path class="pathAnim" d="M204.952 13.5477C204.952 15.3334 204.539 16.864 203.714 18.1152C202.889 19.3664 201.87 20.3139 200.657 20.9577C199.444 21.6015 198.098 21.9416 196.63 21.9781C195.162 22.0145 193.791 21.7594 192.505 21.2249C191.219 20.6904 190.128 19.8523 189.23 18.6983C188.332 17.5564 187.823 16.0866 187.677 14.3009C187.532 12.4423 187.871 10.8875 188.696 9.62412C189.521 8.37293 190.577 7.42543 191.862 6.78162C193.148 6.1378 194.543 5.79767 196.048 5.76123C197.552 5.72479 198.959 5.97988 200.281 6.51437C201.603 7.04886 202.707 7.91133 203.605 9.08963C204.503 10.2679 204.952 11.7621 204.952 13.5477Z" fill="url(#paint53_radial_278_4)"/>
  <path class="pathAnim" d="M229.213 13.5477C229.213 15.3334 228.801 16.864 227.976 18.1152C227.151 19.3664 226.132 20.3139 224.919 20.9577C223.706 21.6015 222.359 21.9416 220.892 21.9781C219.424 22.0145 218.053 21.7594 216.767 21.2249C215.481 20.6904 214.389 19.8523 213.492 18.6983C212.594 17.5564 212.085 16.0866 211.939 14.3009C211.793 12.4423 212.133 10.8875 212.958 9.62412C213.783 8.37293 214.838 7.42543 216.124 6.78162C217.41 6.1378 218.805 5.79767 220.309 5.76123C221.813 5.72479 223.221 5.97988 224.543 6.51437C225.865 7.04886 226.969 7.91133 227.867 9.08963C228.764 10.2679 229.213 11.7621 229.213 13.5477Z" fill="url(#paint54_radial_278_4)"/>
  <path class="pathAnim" d="M254.688 13.5477C254.688 15.3334 254.276 16.864 253.451 18.1152C252.626 19.3664 251.607 20.3139 250.394 20.9577C249.181 21.6015 247.834 21.9416 246.366 21.9781C244.898 22.0145 243.528 21.7594 242.242 21.2249C240.956 20.6904 239.864 19.8523 238.966 18.6983C238.069 17.5564 237.559 16.0866 237.414 14.3009C237.268 12.4423 237.608 10.8875 238.433 9.62412C239.258 8.37293 240.313 7.42543 241.599 6.78162C242.885 6.1378 244.28 5.79767 245.784 5.76123C247.288 5.72479 248.695 5.97988 250.018 6.51437C251.34 7.04886 252.444 7.91133 253.342 9.08963C254.239 10.2679 254.688 11.7621 254.688 13.5477Z" fill="url(#paint55_radial_278_4)"/>
  <path class="pathAnim" d="M278.95 13.5477C278.95 15.3334 278.537 16.864 277.712 18.1152C276.888 19.3664 275.869 20.3139 274.655 20.9577C273.442 21.6015 272.096 21.9416 270.628 21.9781C269.16 22.0145 267.789 21.7594 266.504 21.2249C265.218 20.6904 264.126 19.8523 263.228 18.6983C262.331 17.5564 261.821 16.0866 261.675 14.3009C261.53 12.4423 261.87 10.8875 262.694 9.62412C263.519 8.37293 264.575 7.42543 265.861 6.78162C267.146 6.1378 268.542 5.79767 270.046 5.76123C271.55 5.72479 272.957 5.97988 274.279 6.51437C275.602 7.04886 276.706 7.91133 277.603 9.08963C278.501 10.2679 278.95 11.7621 278.95 13.5477Z" fill="url(#paint56_radial_278_4)"/>
  <path class="pathAnim" d="M303.212 13.5477C303.212 15.3334 302.799 16.864 301.974 18.1152C301.149 19.3664 300.13 20.3139 298.917 20.9577C297.704 21.6015 296.358 21.9416 294.89 21.9781C293.422 22.0145 292.051 21.7594 290.765 21.2249C289.479 20.6904 288.388 19.8523 287.49 18.6983C286.592 17.5564 286.083 16.0866 285.937 14.3009C285.792 12.4423 286.131 10.8875 286.956 9.62412C287.781 8.37293 288.836 7.42543 290.122 6.78162C291.408 6.1378 292.803 5.79767 294.307 5.76123C295.812 5.72479 297.219 5.97988 298.541 6.51437C299.863 7.04886 300.967 7.91133 301.865 9.08963C302.763 10.2679 303.212 11.7621 303.212 13.5477Z" fill="url(#paint57_radial_278_4)"/>
  <path class="pathAnim" d="M328.686 13.5477C328.686 15.3334 328.274 16.864 327.449 18.1152C326.624 19.3664 325.605 20.3139 324.392 20.9577C323.179 21.6015 321.832 21.9416 320.365 21.9781C318.897 22.0145 317.526 21.7594 316.24 21.2249C314.954 20.6904 313.862 19.8523 312.965 18.6983C312.067 17.5564 311.558 16.0866 311.412 14.3009C311.266 12.4423 311.606 10.8875 312.431 9.62412C313.256 8.37293 314.311 7.42543 315.597 6.78162C316.883 6.1378 318.278 5.79767 319.782 5.76123C321.286 5.72479 322.694 5.97988 324.016 6.51437C325.338 7.04886 326.442 7.91133 327.34 9.08963C328.237 10.2679 328.686 11.7621 328.686 13.5477Z" fill="url(#paint58_radial_278_4)"/>
  <path class="pathAnim" d="M352.948 13.5477C352.948 15.3334 352.536 16.864 351.711 18.1152C350.886 19.3664 349.867 20.3139 348.654 20.9577C347.441 21.6015 346.094 21.9416 344.626 21.9781C343.158 22.0145 341.788 21.7594 340.502 21.2249C339.216 20.6904 338.124 19.8523 337.226 18.6983C336.329 17.5564 335.819 16.0866 335.674 14.3009C335.528 12.4423 335.868 10.8875 336.693 9.62412C337.518 8.37293 338.573 7.42543 339.859 6.78162C341.145 6.1378 342.54 5.79767 344.044 5.76123C345.548 5.72479 346.955 5.97988 348.278 6.51437C349.6 7.04886 350.704 7.91133 351.601 9.08963C352.499 10.2679 352.948 11.7621 352.948 13.5477Z" fill="url(#paint59_radial_278_4)"/>

</svg>
