<svg xmlns="http://www.w3.org/2000/svg" width="435" height="267" fill="none"><style>@keyframes garlandEffect{0%{fill:#faff65}25%{fill:green}50%{fill:#00f}75%{fill:#8a2be2}to{fill:#7fffd4}}.pathAnim{animation:garlandEffect 1s infinite alternate;animation-delay:0s}.pathAnim:nth-child(2n){animation-delay:.5s}.pathAnim:nth-child(3n){animation-delay:.7s}</style><path fill="url(#paint0_linear_278_4)" d="M52.458 13.864h330.214c21.108 0 38.212 17.128 38.212 38.264v163.225c0 21.137-17.104 38.265-38.212 38.265H52.458c-21.107 0-38.212-17.128-38.212-38.265V52.128c0-21.136 17.105-38.264 38.212-38.264"/><path fill="#F92D2D" d="M52.458 265.777c-27.804 0-50.343-22.569-50.343-50.411V52.128c0-27.842 22.54-50.412 50.343-50.412h330.214c27.804 0 50.343 22.57 50.343 50.412v163.225c0 27.842-22.539 50.412-50.343 50.412H52.458zm0-24.294h330.214c14.4 0 26.082-11.698 26.082-26.117V52.128c0-14.419-11.682-26.117-26.082-26.117H52.458c-14.4 0-26.081 11.698-26.081 26.117v163.225c0 14.419 11.682 26.117 26.081 26.117z"/><path fill="#BC5564" d="M52.458 242.697c-15.078 0-27.294-12.232-27.294-27.331V52.128c0-15.1 12.216-27.332 27.294-27.332h330.214c15.079 0 27.295 12.233 27.295 27.332v163.225c0 15.1-12.216 27.332-27.295 27.332H52.458zm0-2.429h330.214c13.732 0 24.869-11.152 24.869-24.902V52.128c0-13.75-11.137-24.902-24.869-24.902H52.458c-13.732 0-24.868 11.151-24.868 24.902v163.225c0 13.751 11.136 24.903 24.868 24.903z"/><path fill="url(#paint1_radial_278_4)" d="M82.58 13.548c0 1.785-.413 3.316-1.238 4.567q-1.237 1.877-3.057 2.843c-1.213.644-2.56.984-4.028 1.02a10 10 0 0 1-4.124-.753c-1.286-.535-2.378-1.373-3.275-2.527-.898-1.142-1.408-2.611-1.553-4.397-.146-1.859.194-3.414 1.019-4.677q1.237-1.877 3.166-2.842t4.185-1.02a10.5 10.5 0 0 1 4.234.752c1.322.535 2.426 1.397 3.324 2.576.897 1.178 1.346 2.672 1.346 4.458" class="pathAnim"/><path fill="url(#paint2_radial_278_4)" d="M107.144 13.548c0 1.785-.412 3.316-1.237 4.567q-1.237 1.877-3.057 2.843c-1.213.644-2.56.984-4.028 1.02a10 10 0 0 1-4.124-.753c-1.286-.535-2.378-1.373-3.275-2.527-.898-1.142-1.408-2.611-1.553-4.397-.146-1.859.194-3.414 1.019-4.677q1.237-1.877 3.166-2.842t4.185-1.02a10.5 10.5 0 0 1 4.234.752c1.322.535 2.426 1.397 3.324 2.576.897 1.178 1.346 2.672 1.346 4.458" class="pathAnim"/><path fill="url(#paint3_radial_278_4)" d="M131.697 13.548c0 1.785-.412 3.316-1.237 4.567q-1.237 1.877-3.057 2.843c-1.213.644-2.56.984-4.016 1.02a10 10 0 0 1-4.124-.753c-1.286-.535-2.378-1.373-3.275-2.527-.898-1.142-1.408-2.611-1.553-4.397-.146-1.859.194-3.414 1.019-4.677q1.237-1.877 3.166-2.842t4.185-1.02a10.5 10.5 0 0 1 4.234.752c1.322.535 2.426 1.397 3.324 2.576.897 1.178 1.334 2.672 1.334 4.458" class="pathAnim"/><path fill="url(#paint4_radial_278_4)" d="M156.25 13.548c0 1.785-.413 3.316-1.237 4.567q-1.237 1.877-3.057 2.843c-1.214.644-2.56.984-4.016 1.02a10 10 0 0 1-4.124-.753c-1.286-.535-2.378-1.373-3.276-2.527-.897-1.142-1.407-2.611-1.552-4.397-.146-1.859.194-3.414 1.019-4.677q1.237-1.877 3.166-2.842t4.185-1.02a10.5 10.5 0 0 1 4.234.752c1.322.535 2.426 1.397 3.323 2.576.898 1.178 1.335 2.672 1.335 4.458" class="pathAnim"/><path fill="url(#paint5_radial_278_4)" d="M180.803 13.548c0 1.785-.413 3.316-1.238 4.567q-1.238 1.877-3.057 2.843c-1.213.644-2.559.984-4.015 1.02a10 10 0 0 1-4.124-.753c-1.286-.535-2.378-1.373-3.276-2.527-.897-1.142-1.407-2.611-1.552-4.397-.146-1.859.194-3.414 1.018-4.677q1.238-1.877 3.167-2.842t4.185-1.02a10.5 10.5 0 0 1 4.233.752c1.323.535 2.427 1.397 3.324 2.576.898 1.178 1.335 2.672 1.335 4.458" class="pathAnim"/><path fill="url(#paint6_radial_278_4)" d="M205.368 13.548c0 1.785-.413 3.316-1.238 4.567q-1.238 1.877-3.057 2.843c-1.213.644-2.559.984-4.015 1.02a10 10 0 0 1-4.124-.753c-1.286-.535-2.378-1.373-3.276-2.527-.897-1.142-1.407-2.611-1.553-4.397-.145-1.859.195-3.414 1.019-4.677q1.238-1.877 3.167-2.842t4.185-1.02a10.5 10.5 0 0 1 4.233.752c1.323.535 2.427 1.397 3.324 2.576.898 1.178 1.347 2.672 1.347 4.458z" class="pathAnim"/><path fill="url(#paint7_radial_278_4)" d="M229.921 13.548c0 1.785-.413 3.316-1.238 4.567q-1.237 1.877-3.057 2.843c-1.213.644-2.559.984-4.027 1.02a10 10 0 0 1-4.125-.753c-1.286-.535-2.377-1.373-3.275-2.527-.898-1.142-1.407-2.611-1.553-4.397-.145-1.859.194-3.414 1.019-4.677q1.237-1.877 3.166-2.842t4.186-1.02a10.5 10.5 0 0 1 4.233.752c1.322.535 2.426 1.397 3.324 2.576.898 1.178 1.347 2.672 1.347 4.458" class="pathAnim"/><path fill="url(#paint8_radial_278_4)" d="M254.486 13.548c0 1.785-.413 3.316-1.238 4.567q-1.238 1.877-3.057 2.843c-1.213.644-2.559.984-4.027 1.02a10 10 0 0 1-4.125-.753c-1.286-.535-2.377-1.373-3.275-2.527-.898-1.142-1.407-2.611-1.553-4.397-.145-1.859.194-3.414 1.019-4.677q1.237-1.877 3.166-2.842t4.185-1.02a10.5 10.5 0 0 1 4.234.752c1.322.535 2.426 1.397 3.324 2.576.898 1.178 1.347 2.672 1.347 4.458" class="pathAnim"/><path fill="url(#paint9_radial_278_4)" d="M279.038 13.548c0 1.785-.412 3.316-1.237 4.567q-1.238 1.877-3.057 2.843c-1.213.644-2.56.984-4.027 1.02a10 10 0 0 1-4.125-.753c-1.286-.535-2.378-1.373-3.275-2.527-.898-1.142-1.407-2.611-1.553-4.397-.146-1.859.194-3.414 1.019-4.677q1.237-1.877 3.166-2.842t4.185-1.02a10.5 10.5 0 0 1 4.234.752c1.322.535 2.426 1.397 3.324 2.576.898 1.178 1.334 2.672 1.334 4.458z" class="pathAnim"/><path fill="url(#paint10_radial_278_4)" d="M303.591 13.548c0 1.785-.412 3.316-1.237 4.567q-1.238 1.877-3.057 2.843c-1.213.644-2.56.984-4.015 1.02a10 10 0 0 1-4.125-.753c-1.286-.535-2.378-1.373-3.275-2.527-.898-1.142-1.407-2.611-1.553-4.397-.146-1.859.194-3.414 1.019-4.677q1.237-1.877 3.166-2.842t4.185-1.02a10.5 10.5 0 0 1 4.234.752c1.322.535 2.426 1.397 3.324 2.576.898 1.178 1.334 2.672 1.334 4.458" class="pathAnim"/><path fill="url(#paint11_radial_278_4)" d="M328.144 13.548c0 1.785-.412 3.316-1.237 4.567q-1.238 1.877-3.057 2.843c-1.213.644-2.56.984-4.016 1.02a10 10 0 0 1-4.124-.753c-1.286-.535-2.378-1.373-3.275-2.527-.898-1.142-1.408-2.611-1.553-4.397-.146-1.859.194-3.414 1.019-4.677q1.237-1.877 3.166-2.842t4.185-1.02a10.5 10.5 0 0 1 4.234.752c1.322.535 2.426 1.397 3.324 2.576.897 1.178 1.346 2.672 1.346 4.458z" class="pathAnim"/><path fill="url(#paint12_radial_278_4)" d="M352.709 13.548c0 1.785-.412 3.316-1.237 4.567q-1.237 1.877-3.057 2.843c-1.213.644-2.56.984-4.028 1.02a10 10 0 0 1-4.124-.753c-1.286-.535-2.378-1.373-3.276-2.527-.897-1.142-1.407-2.611-1.552-4.397-.146-1.859.194-3.414 1.019-4.677q1.237-1.877 3.166-2.842t4.185-1.02a10.5 10.5 0 0 1 4.234.752c1.322.535 2.426 1.397 3.324 2.576.897 1.178 1.346 2.672 1.346 4.458" class="pathAnim"/><path fill="url(#paint13_radial_278_4)" d="M377.408 13.779c-.049 1.785-.498 3.304-1.347 4.53q-1.273 1.841-3.13 2.77c-1.225.62-2.584.924-4.039.924-1.456 0-2.839-.292-4.113-.85a8 8 0 0 1-3.202-2.6c-.862-1.166-1.347-2.649-1.444-4.446-.097-1.859.279-3.414 1.14-4.64q1.274-1.841 3.239-2.77c1.298-.608 2.706-.911 4.21-.911s2.911.291 4.221.862 2.39 1.458 3.264 2.66c.861 1.203 1.273 2.697 1.225 4.495z" class="pathAnim"/><path fill="url(#paint14_radial_278_4)" d="M402.979 20.679c-.703 1.64-1.686 2.878-2.935 3.705-1.25.825-2.56 1.287-3.931 1.409-1.37.109-2.741-.11-4.1-.656a10.1 10.1 0 0 1-3.494-2.32c-.97-1.009-1.637-2.211-2.013-3.608-.364-1.41-.267-2.964.303-4.665.606-1.761 1.528-3.061 2.778-3.887s2.596-1.276 4.027-1.36c1.432-.086 2.851.157 4.246.716s2.596 1.348 3.591 2.369q1.51 1.53 2.038 3.68c.352 1.434.182 2.977-.522 4.629z" class="pathAnim"/><path fill="url(#paint15_radial_278_4)" d="M419.938 43.564c-1.565.863-3.093 1.24-4.585 1.118q-2.238-.183-3.967-1.312c-1.152-.753-2.099-1.774-2.826-3.037a10.1 10.1 0 0 1-1.335-3.984 8.1 8.1 0 0 1 .631-4.082c.57-1.336 1.601-2.502 3.105-3.486 1.565-1.02 3.082-1.47 4.574-1.36 1.492.12 2.826.582 4.015 1.408 1.189.814 2.159 1.883 2.912 3.183q1.128 1.95 1.382 4.082.255 2.131-.655 4.154c-.606 1.348-1.686 2.466-3.251 3.328z" class="pathAnim"/><path fill="url(#paint16_radial_278_4)" d="M421.224 71.102c-1.783.073-3.324-.267-4.61-1.032-1.285-.765-2.28-1.75-2.972-2.928-.691-1.19-1.091-2.514-1.188-3.972-.097-1.47.085-2.855.57-4.166a8.1 8.1 0 0 1 2.377-3.39c1.104-.947 2.548-1.53 4.319-1.749 1.856-.23 3.421.049 4.707.814s2.28 1.786 2.972 3.037a9.7 9.7 0 0 1 1.201 4.142c.097 1.494-.085 2.928-.558 4.264-.473 1.348-1.286 2.49-2.426 3.438-1.141.947-2.596 1.457-4.392 1.542" class="pathAnim"/><path fill="url(#paint17_radial_278_4)" d="M420.836 95.956c-1.783 0-3.312-.413-4.561-1.239q-1.875-1.239-2.839-3.061c-.643-1.215-.982-2.563-1.019-4.033s.219-2.842.752-4.13c.534-1.288 1.371-2.38 2.523-3.28 1.141-.899 2.609-1.409 4.392-1.555 1.856-.145 3.409.195 4.67 1.02q1.875 1.24 2.839 3.171.964 1.932 1.019 4.191a10.55 10.55 0 0 1-.752 4.24c-.534 1.324-1.395 2.429-2.572 3.328s-2.669 1.348-4.452 1.348" class="pathAnim"/><path fill="url(#paint18_radial_278_4)" d="M420.836 120.542c-1.783 0-3.312-.413-4.561-1.239q-1.875-1.239-2.839-3.061c-.643-1.215-.982-2.563-1.019-4.021-.036-1.47.219-2.842.752-4.13.534-1.288 1.371-2.381 2.523-3.28 1.141-.899 2.609-1.409 4.392-1.555 1.856-.145 3.409.195 4.67 1.021q1.875 1.24 2.839 3.17.964 1.932 1.019 4.191a10.55 10.55 0 0 1-.752 4.24c-.534 1.324-1.395 2.429-2.572 3.328s-2.669 1.336-4.452 1.336" class="pathAnim"/><path fill="url(#paint19_radial_278_4)" d="M420.836 145.141c-1.783 0-3.312-.413-4.561-1.239q-1.875-1.24-2.839-3.061c-.643-1.215-.982-2.563-1.019-4.021-.036-1.47.219-2.843.752-4.13.534-1.288 1.371-2.381 2.523-3.28 1.141-.899 2.609-1.409 4.392-1.555 1.856-.146 3.409.194 4.67 1.02q1.875 1.239 2.839 3.171t1.019 4.191a10.5 10.5 0 0 1-.752 4.239c-.534 1.324-1.395 2.43-2.572 3.329s-2.669 1.336-4.452 1.336" class="pathAnim"/><path fill="url(#paint20_radial_278_4)" d="M420.836 169.727c-1.783 0-3.312-.413-4.561-1.239q-1.875-1.239-2.839-3.061c-.643-1.215-.982-2.563-1.019-4.021-.036-1.47.219-2.842.752-4.13.534-1.287 1.371-2.381 2.523-3.28 1.141-.899 2.609-1.409 4.392-1.555 1.856-.145 3.409.195 4.67 1.021q1.875 1.24 2.839 3.17.964 1.932 1.019 4.191a10.55 10.55 0 0 1-.752 4.24c-.534 1.324-1.395 2.429-2.572 3.328s-2.669 1.336-4.452 1.336" class="pathAnim"/><path fill="url(#paint21_radial_278_4)" d="M420.836 194.314c-1.783 0-3.312-.413-4.561-1.239q-1.875-1.24-2.839-3.061c-.643-1.215-.982-2.564-1.019-4.021-.036-1.47.219-2.843.752-4.13.534-1.288 1.371-2.381 2.523-3.28 1.141-.899 2.609-1.409 4.392-1.555 1.856-.146 3.409.194 4.67 1.02q1.875 1.239 2.839 3.171.964 1.93 1.019 4.191a10.5 10.5 0 0 1-.752 4.239c-.534 1.324-1.395 2.43-2.572 3.329-1.177.898-2.669 1.348-4.452 1.348z" class="pathAnim"/><path fill="url(#paint22_radial_278_4)" d="M419.938 219.447c-1.783-.182-3.251-.741-4.415-1.688-1.165-.948-2.002-2.053-2.524-3.329-.521-1.275-.727-2.648-.618-4.106a10 10 0 0 1 1.152-4.033 8.1 8.1 0 0 1 2.827-3.012c1.225-.778 2.741-1.142 4.524-1.118 1.869.049 3.373.535 4.537 1.482 1.165.948 2.002 2.09 2.511 3.438s.716 2.77.595 4.264c-.109 1.494-.497 2.879-1.165 4.142-.667 1.263-1.625 2.284-2.887 3.061-1.261.778-2.778 1.069-4.561.899z" class="pathAnim"/><path fill="url(#paint23_radial_278_4)" d="M407.164 243.669c-1.443-1.057-2.414-2.296-2.935-3.705q-.782-2.114-.473-4.154c.206-1.361.728-2.649 1.565-3.851a9.85 9.85 0 0 1 3.057-2.879 8 8 0 0 1 3.966-1.142c1.456-.036 2.936.413 4.465 1.361 1.577.984 2.632 2.186 3.154 3.595s.655 2.818.412 4.24c-.243 1.421-.801 2.745-1.662 3.972s-1.904 2.223-3.118 2.964c-1.213.753-2.559 1.13-4.039 1.154s-2.936-.498-4.379-1.567z" class="pathAnim"/><path fill="url(#paint24_radial_278_4)" d="M380.962 254.784c-.51-1.713-.546-3.292-.109-4.726.436-1.433 1.14-2.636 2.123-3.595q1.473-1.44 3.566-2.114c1.395-.449 2.79-.595 4.173-.449s2.669.656 3.846 1.494c1.176.85 2.086 2.101 2.729 3.778.667 1.749.776 3.34.34 4.774-.437 1.433-1.177 2.648-2.232 3.62-1.056.984-2.293 1.7-3.725 2.162s-2.85.619-4.27.474-2.729-.656-3.918-1.531c-1.189-.887-2.038-2.174-2.547-3.899z" class="pathAnim"/><path fill="url(#paint25_radial_278_4)" d="M354.529 253.97c0-1.786.4-3.316 1.225-4.568s1.832-2.21 3.045-2.854a8.96 8.96 0 0 1 4.015-1.033c1.468-.036 2.839.207 4.125.741q1.928.802 3.275 2.515c.898 1.142 1.419 2.612 1.565 4.397.145 1.859-.182 3.414-1.007 4.677-.813 1.251-1.868 2.211-3.154 2.855a9.8 9.8 0 0 1-4.185 1.032c-1.504.037-2.912-.206-4.234-.741a7.8 7.8 0 0 1-3.336-2.563c-.898-1.178-1.346-2.66-1.359-4.458z" class="pathAnim"/><path fill="url(#paint26_radial_278_4)" d="M329.952 253.945c0-1.785.412-3.316 1.237-4.567q1.238-1.877 3.057-2.842c1.213-.644 2.56-.984 4.027-1.021a10 10 0 0 1 4.125.753c1.286.535 2.377 1.373 3.275 2.527.898 1.142 1.407 2.612 1.553 4.397.145 1.859-.194 3.414-1.019 4.677q-1.237 1.877-3.166 2.843-1.929.965-4.185 1.02a10.5 10.5 0 0 1-4.234-.753c-1.322-.535-2.426-1.397-3.324-2.575s-1.334-2.673-1.334-4.459z" class="pathAnim"/><path fill="url(#paint27_radial_278_4)" d="M305.399 253.945c0-1.785.412-3.316 1.237-4.567q1.238-1.877 3.057-2.842c1.213-.644 2.56-.984 4.015-1.021a10 10 0 0 1 4.125.753c1.286.535 2.377 1.373 3.275 2.527.898 1.142 1.407 2.612 1.553 4.397.145 1.859-.194 3.414-1.019 4.677q-1.237 1.877-3.166 2.843-1.929.965-4.185 1.02a10.5 10.5 0 0 1-4.234-.753c-1.322-.535-2.426-1.397-3.324-2.575s-1.334-2.673-1.334-4.459" class="pathAnim"/><path fill="url(#paint28_radial_278_4)" d="M280.834 253.945c0-1.785.412-3.316 1.237-4.567q1.238-1.877 3.057-2.842c1.213-.644 2.56-.984 4.027-1.021a10 10 0 0 1 4.125.753c1.286.535 2.378 1.373 3.275 2.527.898 1.154 1.407 2.612 1.553 4.397.146 1.859-.194 3.414-1.019 4.677q-1.237 1.877-3.166 2.843-1.929.965-4.185 1.02a10.5 10.5 0 0 1-4.234-.753c-1.322-.535-2.426-1.397-3.324-2.575s-1.346-2.673-1.346-4.459" class="pathAnim"/><path fill="url(#paint29_radial_278_4)" d="M256.281 253.945c0-1.785.412-3.316 1.237-4.567q1.238-1.877 3.057-2.842c1.213-.644 2.56-.984 4.028-1.021a10 10 0 0 1 4.124.753c1.286.535 2.378 1.373 3.275 2.527.898 1.142 1.408 2.612 1.553 4.397.146 1.859-.194 3.414-1.019 4.677q-1.237 1.877-3.166 2.843-1.929.965-4.185 1.02a10.5 10.5 0 0 1-4.234-.753c-1.322-.535-2.426-1.397-3.324-2.575s-1.346-2.673-1.346-4.459" class="pathAnim"/><path fill="url(#paint30_radial_278_4)" d="M231.728 253.945c0-1.785.412-3.316 1.237-4.567q1.237-1.877 3.057-2.842c1.213-.644 2.56-.984 4.028-1.021a10 10 0 0 1 4.124.753c1.286.535 2.378 1.373 3.276 2.527.897 1.142 1.407 2.612 1.552 4.397.146 1.859-.194 3.414-1.019 4.677q-1.237 1.877-3.166 2.843-1.929.965-4.185 1.02a10.5 10.5 0 0 1-4.234-.753c-1.322-.535-2.426-1.397-3.323-2.575-.898-1.179-1.347-2.673-1.347-4.459" class="pathAnim"/><path fill="url(#paint31_radial_278_4)" d="M207.163 253.945c0-1.785.413-3.316 1.237-4.567q1.237-1.877 3.057-2.842c1.213-.644 2.56-.984 4.016-1.021a10 10 0 0 1 4.124.753c1.286.535 2.378 1.373 3.276 2.527.897 1.142 1.407 2.612 1.552 4.397.146 1.859-.194 3.414-1.019 4.677q-1.237 1.877-3.166 2.843-1.929.965-4.185 1.02a10.5 10.5 0 0 1-4.234-.753c-1.322-.535-2.426-1.397-3.324-2.575s-1.334-2.673-1.334-4.459" class="pathAnim"/><path fill="url(#paint32_radial_278_4)" d="M182.61 253.945c0-1.785.413-3.316 1.238-4.567q1.236-1.877 3.057-2.842c1.213-.644 2.559-.984 4.015-1.021a10 10 0 0 1 4.124.753c1.286.535 2.378 1.373 3.276 2.527.897 1.142 1.407 2.612 1.552 4.397.146 1.859-.194 3.414-1.019 4.677q-1.236 1.877-3.166 2.843-1.929.965-4.185 1.02a10.5 10.5 0 0 1-4.234-.753c-1.322-.535-2.426-1.397-3.323-2.575-.898-1.179-1.335-2.673-1.335-4.459" class="pathAnim"/><path fill="url(#paint33_radial_278_4)" d="M158.057 253.945c0-1.785.413-3.316 1.238-4.567q1.237-1.877 3.057-2.842c1.213-.644 2.559-.984 4.015-1.021a10 10 0 0 1 4.124.753c1.286.535 2.378 1.373 3.276 2.527.897 1.142 1.407 2.612 1.553 4.397.145 1.859-.195 3.414-1.019 4.677q-1.238 1.877-3.167 2.843-1.928.965-4.185 1.02a10.5 10.5 0 0 1-4.233-.753c-1.323-.535-2.427-1.397-3.324-2.575-.898-1.179-1.335-2.673-1.335-4.459" class="pathAnim"/><path fill="url(#paint34_radial_278_4)" d="M133.492 253.945c0-1.785.413-3.316 1.238-4.567q1.237-1.877 3.057-2.842c1.213-.644 2.559-.984 4.027-1.021a10 10 0 0 1 4.125.753c1.285.535 2.377 1.373 3.275 2.527s1.407 2.612 1.553 4.397c.145 1.859-.194 3.414-1.019 4.677q-1.238 1.877-3.166 2.843-1.929.965-4.186 1.02a10.5 10.5 0 0 1-4.233-.753c-1.323-.535-2.426-1.397-3.324-2.575s-1.347-2.673-1.347-4.459" class="pathAnim"/><path fill="url(#paint35_radial_278_4)" d="M108.94 253.945c0-1.785.412-3.316 1.237-4.567q1.237-1.877 3.057-2.842c1.213-.644 2.559-.984 4.015-1.021a10 10 0 0 1 4.125.753c1.286.535 2.377 1.373 3.275 2.527.898 1.142 1.407 2.612 1.553 4.397.145 1.859-.194 3.414-1.019 4.677q-1.238 1.877-3.166 2.843-1.929.965-4.186 1.02a10.5 10.5 0 0 1-4.233-.753c-1.323-.535-2.426-1.397-3.324-2.575s-1.347-2.673-1.347-4.459z" class="pathAnim"/><path fill="url(#paint36_radial_278_4)" d="M84.387 253.945c0-1.785.412-3.316 1.237-4.567q1.238-1.877 3.057-2.842c1.213-.644 2.56-.984 4.027-1.021a10 10 0 0 1 4.125.753c1.286.535 2.378 1.373 3.275 2.527.898 1.142 1.407 2.612 1.553 4.397.146 1.859-.194 3.414-1.019 4.677q-1.237 1.877-3.166 2.843-1.929.965-4.185 1.02a10.5 10.5 0 0 1-4.234-.753c-1.322-.535-2.426-1.397-3.324-2.575s-1.346-2.673-1.346-4.459" class="pathAnim"/><path fill="url(#paint37_radial_278_4)" d="M59.749 253.824c.024-1.785.46-3.304 1.298-4.543q1.256-1.858 3.093-2.806c1.225-.631 2.572-.947 4.04-.959q2.201-.019 4.112.801c1.274.559 2.354 1.409 3.24 2.563.873 1.154 1.382 2.636 1.491 4.422.121 1.859-.242 3.414-1.08 4.653q-1.255 1.858-3.202 2.806c-1.298.631-2.693.947-4.197.959q-2.257.018-4.222-.801a7.85 7.85 0 0 1-3.287-2.624c-.874-1.191-1.31-2.685-1.286-4.471" class="pathAnim"/><path fill="url(#paint38_radial_278_4)" d="M34.056 248.042c.63-1.676 1.553-2.952 2.753-3.839 1.214-.886 2.5-1.409 3.858-1.591a8.96 8.96 0 0 1 4.124.462c1.384.486 2.584 1.202 3.603 2.162a7.9 7.9 0 0 1 2.172 3.511c.436 1.384.4 2.939-.097 4.664-.522 1.786-1.383 3.134-2.596 4.009a8.1 8.1 0 0 1-3.955 1.555 9.75 9.75 0 0 1-4.27-.523c-1.42-.498-2.657-1.226-3.7-2.198a7.9 7.9 0 0 1-2.208-3.584c-.424-1.421-.315-2.964.316-4.64z" class="pathAnim"/><path fill="url(#paint39_radial_278_4)" d="M16.017 226.091c1.517-.947 3.02-1.409 4.513-1.372s2.838.401 4.027 1.081c1.19.692 2.184 1.652 2.997 2.879a10 10 0 0 1 1.552 3.899q.345 2.06-.4 4.118c-.497 1.361-1.468 2.588-2.9 3.657-1.504 1.105-2.996 1.639-4.5 1.603-1.492-.036-2.863-.425-4.088-1.178a9.85 9.85 0 0 1-3.081-3.013 10.6 10.6 0 0 1-1.614-3.996 7.8 7.8 0 0 1 .425-4.191c.522-1.385 1.553-2.551 3.07-3.499z" class="pathAnim"/><path fill="url(#paint40_radial_278_4)" d="M13.749 198.468q2.675-.163 4.621.948 1.948 1.112 3.021 2.879c.716 1.178 1.14 2.49 1.262 3.96.121 1.458-.037 2.855-.498 4.166a8 8 0 0 1-2.317 3.426q-1.637 1.44-4.294 1.822c-1.844.255-3.42.012-4.719-.729a8.06 8.06 0 0 1-3.033-2.988 9.8 9.8 0 0 1-1.273-4.118 10.5 10.5 0 0 1 .485-4.276c.46-1.36 1.237-2.514 2.365-3.486 1.117-.972 2.572-1.506 4.355-1.616z" class="pathAnim"/><path fill="url(#paint41_radial_278_4)" d="M14.283 173.505c1.783 0 3.311.413 4.56 1.239q1.875 1.24 2.84 3.062c.642 1.214.982 2.563 1.018 4.033a10 10 0 0 1-.752 4.13c-.534 1.287-1.37 2.381-2.523 3.279-1.14.899-2.608 1.41-4.391 1.555q-2.785.219-4.659-1.02t-2.838-3.171q-.965-1.93-1.02-4.19a10.5 10.5 0 0 1 .753-4.24c.534-1.324 1.395-2.429 2.572-3.328 1.176-.899 2.656-1.336 4.452-1.336z" class="pathAnim"/><path fill="url(#paint42_radial_278_4)" d="M14.283 148.907c1.783 0 3.311.413 4.56 1.239q1.875 1.239 2.84 3.061c.642 1.215.982 2.563 1.018 4.021a10 10 0 0 1-.752 4.13c-.534 1.287-1.37 2.381-2.523 3.28-1.14.899-2.608 1.409-4.391 1.555q-2.785.218-4.659-1.021-1.874-1.24-2.838-3.17-.965-1.932-1.02-4.191a10.5 10.5 0 0 1 .753-4.24c.534-1.324 1.395-2.429 2.572-3.328 1.176-.899 2.656-1.336 4.452-1.336z" class="pathAnim"/><path fill="url(#paint43_radial_278_4)" d="M14.283 124.32c1.783 0 3.311.413 4.56 1.239q1.875 1.24 2.84 3.061c.642 1.215.982 2.564 1.018 4.021a10 10 0 0 1-.752 4.13c-.534 1.288-1.37 2.381-2.523 3.28-1.14.899-2.608 1.409-4.391 1.555q-2.785.219-4.659-1.02t-2.838-3.171q-.965-1.93-1.02-4.191a10.5 10.5 0 0 1 .753-4.239c.534-1.324 1.395-2.43 2.572-3.329 1.176-.898 2.656-1.348 4.452-1.348z" class="pathAnim"/><path fill="url(#paint44_radial_278_4)" d="M14.283 99.734c1.783 0 3.311.413 4.56 1.239q1.875 1.239 2.84 3.061c.642 1.215.982 2.563 1.018 4.033a10 10 0 0 1-.752 4.13c-.534 1.288-1.37 2.381-2.523 3.28-1.14.899-2.608 1.409-4.391 1.555q-2.785.219-4.659-1.021t-2.838-3.17q-.965-1.932-1.02-4.191a10.5 10.5 0 0 1 .753-4.239c.534-1.324 1.395-2.43 2.572-3.329 1.176-.899 2.656-1.348 4.452-1.348z" class="pathAnim"/><path fill="url(#paint45_radial_278_4)" d="M14.283 75.135c1.783 0 3.311.413 4.56 1.24q1.875 1.238 2.84 3.06c.642 1.215.982 2.564 1.018 4.033a10 10 0 0 1-.752 4.13c-.534 1.288-1.37 2.381-2.523 3.28-1.14.9-2.608 1.41-4.391 1.555q-2.785.219-4.659-1.02t-2.838-3.17-1.02-4.191a10.5 10.5 0 0 1 .753-4.24c.534-1.324 1.395-2.43 2.572-3.328 1.176-.9 2.656-1.349 4.452-1.349z" class="pathAnim"/><path fill="url(#paint46_radial_278_4)" d="M14.962 50.136c1.783.133 3.263.656 4.452 1.579 1.189.911 2.05 2.004 2.608 3.268.546 1.263.788 2.624.716 4.093a10 10 0 0 1-1.056 4.07 8 8 0 0 1-2.766 3.073c-1.213.802-2.705 1.215-4.5 1.227-1.868 0-3.385-.45-4.573-1.373a8 8 0 0 1-2.596-3.377c-.546-1.336-.777-2.745-.704-4.251a10.4 10.4 0 0 1 1.067-4.167c.631-1.275 1.577-2.32 2.815-3.122 1.25-.802 2.753-1.142 4.537-1.008z" class="pathAnim"/><path fill="url(#paint47_radial_278_4)" d="M26.34 25.44c1.493.996 2.524 2.174 3.118 3.56.582 1.372.813 2.756.68 4.117-.134 1.373-.595 2.672-1.371 3.924a9.9 9.9 0 0 1-2.912 3.024c-1.164.778-2.462 1.215-3.906 1.337-1.443.109-2.96-.268-4.525-1.142-1.625-.911-2.73-2.053-3.323-3.438-.583-1.373-.789-2.782-.62-4.215a9.9 9.9 0 0 1 1.469-4.057 10.6 10.6 0 0 1 2.972-3.122c1.176-.802 2.51-1.251 3.979-1.349 1.48-.097 2.96.353 4.452 1.349z" class="pathAnim"/><path fill="url(#paint48_radial_278_4)" d="M51.451 12.625c.668 1.664.862 3.219.57 4.689-.29 1.47-.885 2.733-1.77 3.79-.886 1.056-2.002 1.87-3.349 2.453-1.346.583-2.717.875-4.112.85-1.395-.012-2.717-.388-3.979-1.105q-1.893-1.093-3.093-3.498c-.825-1.677-1.104-3.244-.801-4.713.291-1.47.91-2.746 1.868-3.827q1.42-1.622 3.494-2.514c1.383-.596 2.778-.9 4.21-.9 1.43 0 2.777.377 4.051 1.142 1.274.754 2.244 1.968 2.911 3.632" class="pathAnim"/><path fill="url(#paint49_radial_278_4)" d="M107.905 13.548c0 1.785-.413 3.316-1.238 4.567q-1.237 1.877-3.057 2.843c-1.213.644-2.559.984-4.027 1.02a10 10 0 0 1-4.124-.753c-1.286-.535-2.378-1.373-3.276-2.527-.898-1.142-1.407-2.611-1.553-4.397-.145-1.859.195-3.414 1.02-4.677q1.237-1.877 3.165-2.842 1.929-.966 4.186-1.02a10.5 10.5 0 0 1 4.233.752c1.323.535 2.427 1.397 3.324 2.576.898 1.178 1.347 2.672 1.347 4.458" class="pathAnim"/><path fill="url(#paint50_radial_278_4)" d="M130.953 13.548c0 1.785-.412 3.316-1.237 4.567q-1.237 1.877-3.057 2.843c-1.213.644-2.56.984-4.027 1.02a10 10 0 0 1-4.125-.753c-1.286-.535-2.378-1.373-3.275-2.527-.898-1.142-1.407-2.611-1.553-4.397-.146-1.859.194-3.414 1.019-4.677q1.237-1.877 3.166-2.842t4.185-1.02a10.5 10.5 0 0 1 4.234.752c1.322.535 2.426 1.397 3.324 2.576.898 1.178 1.346 2.672 1.346 4.458" class="pathAnim"/><path fill="url(#paint51_radial_278_4)" d="M156.428 13.548c0 1.785-.412 3.316-1.237 4.567q-1.237 1.877-3.057 2.843c-1.213.644-2.56.984-4.028 1.02a10 10 0 0 1-4.124-.753c-1.286-.535-2.378-1.373-3.275-2.527-.898-1.142-1.408-2.611-1.553-4.397-.146-1.859.194-3.414 1.019-4.677q1.237-1.877 3.166-2.842t4.185-1.02a10.5 10.5 0 0 1 4.234.752c1.322.535 2.426 1.397 3.324 2.576.897 1.178 1.346 2.672 1.346 4.458" class="pathAnim"/><path fill="url(#paint52_radial_278_4)" d="M181.903 13.548c0 1.785-.412 3.316-1.237 4.567q-1.238 1.877-3.057 2.843c-1.213.644-2.56.984-4.028 1.02a10 10 0 0 1-4.124-.753c-1.286-.535-2.378-1.373-3.276-2.527-.897-1.142-1.407-2.611-1.552-4.397-.146-1.859.194-3.414 1.019-4.677q1.237-1.877 3.166-2.842t4.185-1.02a10.5 10.5 0 0 1 4.234.752c1.322.535 2.426 1.397 3.323 2.576.898 1.178 1.347 2.672 1.347 4.458" class="pathAnim"/><path fill="url(#paint53_radial_278_4)" d="M204.952 13.548c0 1.785-.413 3.316-1.238 4.567q-1.238 1.877-3.057 2.843c-1.213.644-2.559.984-4.027 1.02a10 10 0 0 1-4.125-.753c-1.286-.535-2.377-1.373-3.275-2.527-.898-1.142-1.407-2.611-1.553-4.397-.145-1.859.194-3.414 1.019-4.677q1.238-1.877 3.166-2.842 1.929-.966 4.186-1.02a10.5 10.5 0 0 1 4.233.752c1.322.535 2.426 1.397 3.324 2.576.898 1.178 1.347 2.672 1.347 4.458" class="pathAnim"/><path fill="url(#paint54_radial_278_4)" d="M229.213 13.548c0 1.785-.412 3.316-1.237 4.567q-1.238 1.877-3.057 2.843c-1.213.644-2.56.984-4.027 1.02a10 10 0 0 1-4.125-.753c-1.286-.535-2.378-1.373-3.275-2.527-.898-1.142-1.407-2.611-1.553-4.397-.146-1.859.194-3.414 1.019-4.677q1.237-1.877 3.166-2.842t4.185-1.02a10.5 10.5 0 0 1 4.234.752c1.322.535 2.426 1.397 3.324 2.576.897 1.178 1.346 2.672 1.346 4.458" class="pathAnim"/><path fill="url(#paint55_radial_278_4)" d="M254.688 13.548c0 1.785-.412 3.316-1.237 4.567q-1.237 1.877-3.057 2.843c-1.213.644-2.56.984-4.028 1.02a10 10 0 0 1-4.124-.753c-1.286-.535-2.378-1.373-3.276-2.527-.897-1.142-1.407-2.611-1.552-4.397-.146-1.859.194-3.414 1.019-4.677q1.237-1.877 3.166-2.842t4.185-1.02a10.5 10.5 0 0 1 4.234.752c1.322.535 2.426 1.397 3.324 2.576.897 1.178 1.346 2.672 1.346 4.458" class="pathAnim"/><path fill="url(#paint56_radial_278_4)" d="M278.95 13.548c0 1.785-.413 3.316-1.238 4.567q-1.236 1.877-3.057 2.843c-1.213.644-2.559.984-4.027 1.02a10 10 0 0 1-4.124-.753c-1.286-.535-2.378-1.373-3.276-2.527-.897-1.142-1.407-2.611-1.553-4.397-.145-1.859.195-3.414 1.019-4.677q1.238-1.877 3.167-2.842t4.185-1.02a10.5 10.5 0 0 1 4.233.752c1.323.535 2.427 1.397 3.324 2.576.898 1.178 1.347 2.672 1.347 4.458" class="pathAnim"/><path fill="url(#paint57_radial_278_4)" d="M303.212 13.548c0 1.785-.413 3.316-1.238 4.567q-1.238 1.877-3.057 2.843c-1.213.644-2.559.984-4.027 1.02a10 10 0 0 1-4.125-.753c-1.286-.535-2.377-1.373-3.275-2.527-.898-1.142-1.407-2.611-1.553-4.397-.145-1.859.194-3.414 1.019-4.677q1.237-1.877 3.166-2.842t4.185-1.02a10.5 10.5 0 0 1 4.234.752c1.322.535 2.426 1.397 3.324 2.576.898 1.178 1.347 2.672 1.347 4.458" class="pathAnim"/><path fill="url(#paint58_radial_278_4)" d="M328.686 13.548c0 1.785-.412 3.316-1.237 4.567q-1.238 1.877-3.057 2.843c-1.213.644-2.56.984-4.027 1.02a10 10 0 0 1-4.125-.753c-1.286-.535-2.378-1.373-3.275-2.527-.898-1.142-1.407-2.611-1.553-4.397-.146-1.859.194-3.414 1.019-4.677q1.237-1.877 3.166-2.842t4.185-1.02a10.5 10.5 0 0 1 4.234.752c1.322.535 2.426 1.397 3.324 2.576.897 1.178 1.346 2.672 1.346 4.458" class="pathAnim"/><path fill="url(#paint59_radial_278_4)" d="M352.948 13.548c0 1.785-.412 3.316-1.237 4.567q-1.237 1.877-3.057 2.843c-1.213.644-2.56.984-4.028 1.02a10 10 0 0 1-4.124-.753c-1.286-.535-2.378-1.373-3.276-2.527-.897-1.142-1.407-2.611-1.552-4.397-.146-1.859.194-3.414 1.019-4.677q1.237-1.877 3.166-2.842t4.185-1.02a10.5 10.5 0 0 1 4.234.752c1.322.535 2.426 1.397 3.323 2.576.898 1.178 1.347 2.672 1.347 4.458" class="pathAnim"/></svg>