<svg xmlns="http://www.w3.org/2000/svg" width="97" height="15" fill="none"><path fill="url(#a)" d="M87.93.285H7.54a7.216 7.216 0 1 0 0 14.43h80.39l6.962-5.663a2 2 0 0 0 0-3.104z"/><path fill="url(#b)" fill-rule="evenodd" d="M35.113.183a.5.5 0 0 1 .704-.07L43.39 6.31a1.5 1.5 0 0 1 0 2.322l-7.574 6.197a.5.5 0 1 1-.634-.774l7.575-6.197a.5.5 0 0 0 0-.774L35.183.887a.5.5 0 0 1-.07-.704m13.168 0a.5.5 0 0 1 .703-.07L56.56 6.31a1.5 1.5 0 0 1 0 2.322l-7.575 6.197a.5.5 0 1 1-.633-.774l7.575-6.197a.5.5 0 0 0 0-.774L48.35.887a.5.5 0 0 1-.07-.704Zm13.871-.07a.5.5 0 1 0-.633.774l7.575 6.197a.5.5 0 0 1 0 .774l-7.575 6.198a.5.5 0 0 0 .633.773l7.575-6.197a1.5 1.5 0 0 0 0-2.322zm12.465.07a.5.5 0 0 1 .703-.07l7.575 6.197a1.5 1.5 0 0 1 0 2.322L75.32 14.83a.5.5 0 1 1-.633-.774l7.574-6.197a.5.5 0 0 0 0-.774L74.687.887a.5.5 0 0 1-.07-.704m13.871-.07a.5.5 0 1 0-.633.774l7.574 6.197a.5.5 0 0 1 0 .774l-7.574 6.198a.5.5 0 1 0 .633.773l7.574-6.197a1.5 1.5 0 0 0 0-2.322z" clip-rule="evenodd"/><defs><linearGradient id="a" x1="48.56" x2="48.56" y1=".285" y2="14.715" gradientUnits="userSpaceOnUse"><stop stop-color="#DE0004"/><stop offset="1" stop-color="#A20003"/></linearGradient><linearGradient id="b" x1="35" x2="96.613" y1="7.471" y2="7.471" gradientUnits="userSpaceOnUse"><stop stop-color="#fff" stop-opacity="0"/><stop offset="1" stop-color="#fff"/></linearGradient></defs></svg>