<svg xmlns="http://www.w3.org/2000/svg" width="40" height="40" fill="none"><rect width="40" height="40" fill="#fff" rx="20"/><path fill="#000" d="M12.237 19.027q7.248-2.963 9.666-3.908c4.603-1.796 5.56-2.108 6.183-2.119.137-.002.444.03.642.181.168.128.214.3.236.421s.05.397.028.613c-.25 2.46-1.329 8.428-1.878 11.183-.232 1.166-.69 1.557-1.133 1.595-.962.083-1.693-.597-2.625-1.17-1.459-.898-2.283-1.457-3.7-2.332-1.636-1.012-.575-1.569.358-2.478.244-.238 4.485-3.858 4.567-4.186.01-.041.02-.194-.077-.275s-.24-.053-.343-.032q-.22.047-6.992 4.337-.992.64-1.797.623c-.592-.012-1.73-.314-2.576-.572-1.038-.316-1.864-.484-1.792-1.022q.057-.42 1.233-.859"/></svg>