<svg xmlns="http://www.w3.org/2000/svg" width="352" height="20" fill="none"><style>path{opacity:.1}</style><path fill="url(#paint0_linear_303_1639)" d="M339.56.004C328.759.152.31 0 .31 0c-3.84 19.679 27.555 19.147 114.313 19.66S351.42 10.188 351.614 7.084c.193-3.1-1.256-7.228-12.054-7.08" style="mix-blend-mode:overlay"/><path fill="url(#paint1_linear_303_1639)" d="M346.058 2.623C347.55.565 304.423.672 303.532 3.676c-1.142 3.845 26.722 2.982 30.241 3.256 3.517.274 10.025-1.191 12.287-4.309z"/><path fill="url(#paint2_linear_303_1639)" d="M295.659 2.42C290.394 2.012 21.382.955 15.876 2.01 10.369 3.061 144.75 8.06 275.04 8.06c16.935 0 24.625-5.333 20.619-5.64z" style="mix-blend-mode:overlay"/><defs><linearGradient id="paint0_linear_303_1639" x1="175.375" x2="176.433" y1="-5.7" y2="19.687" gradientUnits="userSpaceOnUse"><stop stop-color="#fff"/><stop offset="1" stop-color="#fff"/></linearGradient><linearGradient id="paint1_linear_303_1639" x1="324.797" x2="324.797" y1="1.076" y2="8.469" gradientUnits="userSpaceOnUse"><stop stop-color="#fff"/><stop offset="1" stop-color="#fff"/></linearGradient><linearGradient id="paint2_linear_303_1639" x1="156.205" x2="156.205" y1="1.387" y2="9.767" gradientUnits="userSpaceOnUse"><stop stop-color="#fff"/><stop offset="1" stop-color="#fff"/></linearGradient></defs></svg>