<svg xmlns="http://www.w3.org/2000/svg" width="40" height="40" fill="none"><rect width="40" height="40" fill="#fff" rx="20"/><path fill="#000" fill-rule="evenodd" d="M25.6 14.3C24.1 12.8 22.1 12 20 12c-4.4 0-8 3.6-8 8 0 1.4.4 2.8 1.1 4L12 28l4.2-1.1c1.2.6 2.5 1 3.8 1 4.4 0 8-3.6 8-8 0-2.1-.9-4.1-2.4-5.6M20 26.6c-1.2 0-2.4-.3-3.4-.9l-.2-.1-2.5.7.7-2.4-.2-.3c-.7-1.1-1-2.3-1-3.5 0-3.6 3-6.6 6.6-6.6 1.8 0 3.4.7 4.7 1.9 1.3 1.3 1.9 2.9 1.9 4.7 0 3.5-2.9 6.5-6.6 6.5m3.6-5c-.2-.1-1.2-.6-1.4-.6-.2-.1-.3-.1-.4.1s-.5.6-.6.8c-.1.1-.2.1-.4.1-.2-.1-.8-.3-1.6-1-.6-.5-1-1.2-1.1-1.4s0-.3.1-.4l.3-.3c.1-.1.1-.2.2-.3s0-.2 0-.3-.4-1.1-.6-1.5c-.1-.3-.3-.3-.4-.3h-.4c-.1 0-.3 0-.5.2s-.7.7-.7 1.7.7 1.9.8 2.1c.1.1 1.4 2.2 3.4 3 1.7.7 2 .5 2.4.5s1.2-.5 1.3-.9c.2-.5.2-.9.1-.9-.1-.5-.3-.5-.5-.6" clip-rule="evenodd"/></svg>